<!DOCTYPE svg PUBLIC "-//W3C//DTD SVG 20010904//EN" "http://www.w3.org/TR/2001/REC-SVG-20010904/DTD/svg10.dtd">
<svg version="1.0" xmlns="http://www.w3.org/2000/svg" width="1525px" height="1600px" viewBox="0 0 15250 16000" preserveAspectRatio="xMidYMid meet">
<g id="layer101" fill="#000000" stroke="none">
 <path d="M0 8000 l0 -8000 7625 0 7625 0 0 8000 0 8000 -7625 0 -7625 0 0 -8000z"/>
 </g>
<g id="layer102" fill="#ffffff" stroke="none">
 <path d="M0 8000 l0 -8000 7625 0 7625 0 0 8000 0 8000 -7625 0 -7625 0 0 -8000z m5480 7009 c1690 -33 1346 -15 3345 -168 138 -11 414 -32 615 -46 327 -24 379 -30 505 -60 77 -19 219 -53 315 -75 96 -23 222 -53 280 -67 58 -14 139 -33 180 -43 741 -173 823 -194 1200 -310 36 -11 103 -31 150 -44 47 -14 162 -48 255 -76 212 -63 323 -97 400 -120 303 -90 374 -112 550 -175 88 -31 234 -83 325 -115 91 -32 206 -72 255 -89 169 -60 425 -195 425 -225 0 -17 -60 -64 -101 -78 -53 -18 -254 8 -394 52 -66 21 -201 64 -300 95 -574 181 -547 173 -790 234 -172 44 -375 94 -490 122 -66 16 -145 36 -175 44 -93 25 -263 63 -310 70 -25 3 -88 14 -140 25 -52 10 -162 30 -245 44 -82 15 -208 37 -280 51 -71 13 -195 35 -275 50 -80 15 -206 38 -280 51 -558 103 -895 159 -1070 179 -19 3 -120 18 -225 34 -104 16 -226 34 -270 41 -180 25 -288 41 -445 65 -474 71 -583 85 -785 100 -121 8 -276 20 -345 25 -219 18 -553 40 -625 41 -38 1 -158 -3 -265 -10 -107 -7 -224 -14 -260 -16 -382 -23 -637 -38 -850 -50 -278 -16 -309 -17 -670 -39 -135 -9 -328 -20 -430 -26 -170 -9 -218 -14 -410 -40 -36 -5 -103 -14 -150 -20 -47 -6 -116 -15 -155 -20 -38 -5 -108 -14 -155 -20 -130 -17 -228 -30 -305 -40 -38 -5 -108 -14 -155 -20 -47 -6 -114 -15 -150 -20 -36 -5 -108 -14 -160 -20 -107 -13 -222 -39 -455 -106 -88 -25 -178 -50 -199 -55 -33 -8 -153 -54 -236 -91 -14 -6 -36 -15 -50 -20 -14 -6 -38 -16 -55 -23 -154 -66 -480 -196 -553 -219 l-52 -18 -69 43 -68 42 -28 83 -27 82 57 105 58 104 156 86 c198 108 164 93 391 176 183 68 247 92 295 111 167 68 156 65 705 180 198 42 366 78 440 95 70 16 205 33 310 40 36 2 133 9 215 15 83 6 177 13 210 15 33 2 116 9 185 15 69 6 215 17 325 25 321 23 490 37 493 40 2 2 86 1 185 -2 100 -3 382 -9 627 -14z m-1405 -1072 l55 -52 -10 -200 c-7 -130 -21 -264 -41 -385 -27 -161 -30 -200 -24 -300 7 -138 24 -281 35 -295 4 -5 28 -58 53 -117 43 -101 107 -210 138 -235 8 -6 128 -18 274 -27 164 -10 292 -23 347 -35 48 -11 114 -23 146 -27 59 -6 60 -7 121 -80 33 -40 61 -79 61 -86 0 -7 -12 -26 -26 -42 l-25 -29 -292 27 c-161 14 -368 30 -462 36 -93 5 -189 13 -212 16 -32 5 -43 3 -43 -7 0 -17 188 -389 210 -414 30 -34 156 -218 175 -255 10 -19 44 -93 76 -164 l58 -129 -43 -56 c-67 -86 -71 -88 -178 -100 -54 -6 -99 -11 -102 -11 -5 0 -60 75 -131 180 -104 153 -149 216 -190 265 -22 28 -86 108 -140 179 -202 260 -231 295 -294 347 -34 30 -104 89 -155 133 -69 60 -118 91 -201 131 -121 58 -106 57 -295 34 -81 -10 -88 -13 -156 -65 l-72 -55 -89 21 c-80 20 -97 28 -156 78 l-67 56 0 83 0 83 81 96 c66 79 78 99 67 109 -7 7 -82 54 -165 104 l-153 93 -76 134 c-73 129 -76 136 -70 181 12 81 11 80 89 99 l73 17 190 -112 189 -111 150 -171 c146 -166 154 -174 300 -271 157 -106 152 -104 451 -198 l70 -22 42 21 c23 12 42 24 42 28 0 5 -85 297 -115 397 -17 56 -21 368 -5 426 9 32 38 167 77 349 12 57 31 99 80 182 l64 108 77 31 c42 18 82 36 87 40 6 4 19 10 30 13 11 2 21 5 22 6 1 0 27 -23 58 -52z m6494 -241 l63 -64 -16 -56 c-15 -52 -22 -60 -75 -94 -65 -42 -208 -189 -296 -306 -83 -109 -100 -130 -185 -240 -73 -94 -241 -340 -260 -381 -22 -49 -100 -257 -100 -268 0 -6 28 -31 63 -54 92 -62 277 -200 315 -234 17 -16 32 -39 32 -52 0 -12 3 -31 6 -43 4 -16 -3 -25 -38 -43 l-43 -23 -79 21 c-63 17 -105 37 -202 100 -124 81 -238 132 -254 115 -7 -8 -80 -168 -235 -519 -38 -86 -110 -293 -194 -560 -14 -44 -36 -86 -60 -114 l-37 -44 -90 35 c-49 19 -97 38 -106 41 -27 9 -23 69 11 168 15 47 36 118 44 159 48 220 68 323 77 395 5 44 19 143 29 220 41 294 44 345 27 459 l-7 41 -111 50 c-154 69 -298 154 -298 178 0 10 7 49 16 87 l15 69 50 10 c68 15 60 17 148 -34 43 -25 84 -45 91 -45 10 0 12 19 7 83 -4 74 -9 90 -52 167 -59 105 -83 142 -205 305 l-97 130 7 75 c6 59 35 154 55 178 2 2 47 -6 122 -23 17 -4 24 -19 39 -82 15 -65 29 -92 79 -163 73 -101 133 -218 225 -435 37 -88 83 -187 103 -220 19 -33 56 -97 82 -143 37 -65 50 -82 63 -77 10 4 49 18 87 32 39 15 78 33 89 42 10 9 63 75 119 146 55 72 117 148 136 171 217 247 362 453 400 569 30 91 58 131 153 220 62 57 91 77 141 93 34 12 67 21 72 22 6 0 39 -29 74 -64z m-4983 -4 c23 -20 83 -73 134 -117 170 -147 192 -169 312 -318 l120 -148 77 -230 c77 -229 77 -230 69 -302 -31 -283 -32 -289 -127 -456 -27 -47 -51 -104 -55 -127 l-6 -40 265 -129 c146 -70 277 -138 293 -151 15 -12 65 -53 112 -91 51 -41 114 -106 157 -162 l73 -92 -19 -37 c-16 -32 -28 -41 -74 -55 -29 -9 -59 -17 -65 -17 -5 0 -18 21 -28 47 -12 30 -49 82 -102 140 -68 75 -101 102 -175 145 -51 29 -134 78 -185 111 -51 32 -145 79 -209 103 l-115 46 -37 -30 c-30 -25 -36 -36 -38 -73 -4 -72 -23 -297 -34 -402 -11 -95 -12 -98 -48 -125 -55 -44 -55 -44 -126 -20 -55 19 -74 31 -107 70 l-40 48 26 182 c14 100 23 184 21 187 -2 4 -31 114 -64 246 -34 132 -77 281 -95 330 -19 50 -46 124 -61 165 -82 228 -96 259 -188 391 -51 74 -136 199 -190 279 -54 80 -128 187 -163 239 l-64 93 6 94 7 94 67 0 c74 0 68 3 206 -112 80 -67 94 -84 171 -208 22 -36 69 -112 105 -170 226 -365 252 -411 290 -510 22 -58 43 -108 46 -112 4 -4 49 32 100 80 l93 87 -1 91 c0 89 -15 150 -87 361 -5 12 -61 83 -126 157 -103 118 -187 195 -298 271 -27 19 -29 24 -29 96 l0 75 68 21 c37 12 74 22 82 22 8 0 34 -16 56 -37z m1849 -571 c39 -11 91 -22 116 -26 70 -10 74 -15 51 -67 -15 -35 -32 -51 -81 -81 -59 -35 -65 -37 -207 -47 -145 -11 -164 -15 -291 -70 l-53 -23 0 -62 0 -62 83 -22 c77 -20 85 -21 120 -6 23 9 68 15 122 15 84 0 88 -1 145 -40 l58 -40 -14 -45 c-19 -64 -19 -64 -93 -98 -56 -25 -77 -29 -137 -28 -66 2 -77 -1 -133 -34 -66 -39 -69 -49 -35 -116 13 -25 16 -26 135 -32 67 -4 186 -7 265 -7 l142 0 86 -51 c47 -28 86 -57 86 -63 -1 -55 -142 -103 -342 -116 -75 -5 -153 -13 -175 -19 -21 -6 -69 -15 -106 -21 -38 -6 -96 -20 -128 -31 -58 -20 -62 -20 -142 -4 -87 17 -99 24 -190 95 -59 47 -64 56 -98 195 -25 98 -107 329 -150 421 -44 95 -47 109 -54 210 l-7 109 149 48 c157 50 340 88 513 108 58 6 125 15 150 19 78 13 143 11 215 -9z m-6327 -89 c31 -11 85 -27 119 -37 33 -10 83 -34 110 -54 26 -20 100 -74 163 -119 63 -45 149 -107 190 -137 41 -31 91 -67 110 -80 19 -13 69 -49 110 -80 137 -101 231 -170 254 -185 22 -15 196 -148 319 -243 34 -27 87 -67 117 -89 30 -23 57 -44 60 -48 3 -3 40 -32 84 -65 43 -33 93 -71 111 -85 18 -14 76 -59 130 -100 54 -41 115 -88 136 -105 21 -16 66 -50 99 -75 33 -25 141 -137 245 -256 102 -116 233 -253 291 -304 l106 -94 247 13 c135 7 253 13 261 13 8 0 155 -4 325 -8 l310 -7 138 -69 c105 -53 137 -73 133 -85 -4 -8 -23 -37 -44 -64 l-37 -48 -115 -1 c-63 0 -207 -5 -320 -11 -113 -5 -250 -12 -305 -14 -173 -7 -296 -14 -435 -26 -74 -6 -248 -14 -385 -18 -138 -4 -255 -10 -260 -13 -6 -3 -26 -9 -45 -12 -19 -3 -66 -13 -105 -21 -38 -9 -92 -20 -120 -25 -27 -5 -81 -16 -120 -25 -38 -8 -83 -18 -100 -22 -16 -3 -34 -9 -40 -13 -5 -4 -37 -22 -70 -40 -281 -153 -399 -224 -506 -305 l-113 -85 -63 0 c-59 0 -65 2 -120 46 -32 26 -61 50 -65 53 -4 3 6 55 22 115 25 95 33 113 61 135 214 170 259 202 319 225 229 87 514 190 630 227 74 23 136 43 138 45 2 1 8 46 14 100 l10 99 -76 155 c-83 167 -79 163 -281 345 -49 44 -121 109 -160 145 -39 36 -108 94 -154 130 -46 36 -142 112 -215 170 -72 58 -147 117 -166 132 -19 15 -83 64 -142 110 -59 46 -138 105 -175 131 -38 27 -108 77 -158 113 -49 36 -112 81 -140 100 -27 19 -80 55 -116 82 -37 26 -102 72 -145 103 -96 68 -147 128 -167 196 -15 50 -15 51 11 77 15 14 28 26 30 26 1 0 28 -8 60 -18z m10707 -626 l69 -63 -68 -76 c-50 -55 -107 -102 -214 -175 -81 -54 -185 -127 -232 -161 -47 -34 -130 -94 -185 -133 -55 -39 -109 -79 -120 -89 -11 -9 -38 -27 -60 -40 -57 -32 -144 -82 -163 -94 -9 -5 -44 -25 -77 -44 -180 -103 -305 -206 -305 -251 0 -19 121 -151 256 -281 71 -68 238 -230 371 -361 240 -234 243 -238 273 -313 17 -42 28 -80 25 -85 -3 -5 -23 -15 -44 -21 -36 -11 -43 -9 -128 36 -55 29 -122 76 -174 122 -183 164 -418 373 -518 461 -68 60 -189 184 -261 267 -24 28 -72 79 -106 115 l-63 65 -7 76 -6 75 86 89 c47 49 86 92 86 96 0 4 15 16 33 27 271 163 525 312 577 338 36 19 164 94 285 168 366 224 394 239 494 277 53 20 98 37 101 38 3 0 36 -28 75 -63z m995 5 c70 -23 70 -24 31 -246 -32 -183 -78 -337 -159 -530 -27 -66 -77 -187 -112 -270 -34 -82 -80 -193 -102 -245 -21 -52 -66 -177 -100 -278 l-61 -183 24 -50 c26 -57 35 -63 99 -75 48 -8 79 -7 95 5 6 5 80 40 165 79 173 78 352 135 580 182 165 34 170 36 170 74 0 18 3 60 6 92 5 58 5 60 -57 164 -56 95 -85 141 -156 250 -12 20 -34 74 -49 120 -51 165 -113 335 -159 436 -60 129 -71 176 -67 275 2 36 55 119 77 119 5 0 30 -16 55 -36 42 -33 51 -49 126 -232 45 -108 96 -224 114 -257 18 -33 55 -103 82 -155 190 -360 277 -512 344 -595 63 -80 124 -191 124 -227 0 -7 -13 -33 -29 -58 l-28 -45 -124 -29 c-200 -46 -198 -45 -560 -179 -191 -71 -288 -113 -385 -167 -71 -40 -149 -84 -174 -98 -59 -33 -87 -53 -192 -135 -82 -64 -93 -70 -172 -86 l-85 -17 -54 27 c-50 26 -55 32 -81 99 -27 68 -28 76 -21 183 6 108 16 160 72 367 46 174 297 844 418 1115 58 132 56 125 101 280 14 50 33 113 41 140 35 121 51 149 101 177 26 15 47 27 47 27 0 0 25 -8 55 -18z m-839 -675 l64 -24 6 -53 c5 -51 2 -61 -60 -190 -77 -159 -67 -132 -171 -424 -76 -209 -102 -275 -128 -313 -15 -22 -82 -33 -126 -20 -28 9 -48 26 -76 63 l-38 51 23 95 c12 52 57 177 100 279 42 102 102 256 132 343 l56 158 61 29 c75 35 79 36 157 6z m-4679 -1219 c4 -6 10 -41 13 -77 3 -36 12 -103 20 -150 8 -47 15 -103 15 -125 l0 -40 -136 3 c-120 3 -142 1 -189 -18 -52 -21 -52 -22 -45 -53 5 -18 13 -45 19 -62 44 -120 92 -287 87 -300 -3 -9 -13 -18 -21 -21 -17 -7 -55 22 -55 41 0 6 -8 29 -19 51 -10 21 -33 73 -51 114 -18 41 -38 83 -45 92 -10 16 -13 14 -23 -20 -16 -53 -70 -237 -88 -302 -8 -30 -21 -73 -28 -95 -8 -22 -21 -69 -31 -105 -10 -36 -23 -83 -30 -105 -11 -37 -18 -60 -59 -200 -23 -83 -58 -197 -73 -244 -29 -91 -91 -201 -113 -201 -17 0 -33 59 -23 88 13 35 26 77 53 177 13 44 29 99 36 123 8 23 14 49 14 57 0 8 6 29 14 47 8 18 22 62 31 98 10 36 31 110 47 165 16 55 35 123 43 150 12 44 41 143 90 310 36 126 43 151 48 173 5 22 3 22 -88 22 l-93 0 -4 198 c-2 108 -3 198 -2 200 1 2 69 9 151 15 179 14 525 10 535 -6z m395 3 l133 0 0 -200 0 -200 -72 4 c-40 2 -134 4 -209 5 l-137 1 -15 93 c-8 50 -20 128 -27 172 -6 44 -14 93 -17 109 l-6 29 108 -6 c59 -4 168 -7 242 -7z m586 -21 c112 -13 107 -7 82 -124 -37 -172 -55 -244 -75 -295 -20 -51 -20 -61 -10 -140 23 -171 42 -267 72 -357 17 -50 28 -98 25 -107 -8 -21 -72 -31 -92 -14 -46 38 -55 50 -55 78 0 17 -6 59 -14 93 -8 34 -22 106 -32 160 -18 99 -29 118 -40 70 -3 -16 -10 -37 -14 -48 -5 -11 -26 -65 -45 -120 -20 -55 -44 -120 -55 -145 -32 -80 -80 -206 -80 -214 0 -5 -7 -22 -14 -39 -20 -44 -46 -148 -46 -186 0 -28 -3 -31 -29 -31 -86 0 -79 150 19 365 5 11 30 83 55 160 26 77 62 183 80 235 22 63 35 122 39 176 7 94 8 94 -83 94 -31 0 -62 5 -69 12 -8 8 -12 68 -12 203 l0 191 148 -3 c81 -2 191 -8 245 -14z m-1725 -190 l2 -196 -112 -15 c-62 -8 -117 -12 -121 -10 -8 4 0 345 9 389 5 26 28 31 139 29 l80 -1 3 -196z m-282 14 c-4 -93 -11 -190 -14 -217 l-7 -48 -68 -26 c-37 -13 -70 -22 -72 -20 -3 3 -8 74 -12 159 -8 181 -19 166 -29 -40 l-7 -133 -32 -13 c-17 -8 -43 -17 -58 -20 l-27 -7 0 250 0 251 33 6 c27 5 161 17 276 24 l24 1 -7 -167z m2274 132 c13 -4 14 -25 9 -142 -7 -164 -17 -207 -63 -256 -45 -49 -75 -49 -99 1 -17 36 -17 38 9 112 14 42 30 117 35 169 13 133 13 134 57 126 21 -3 44 -8 52 -10z m-2680 -207 c0 -117 3 -236 6 -264 l6 -52 -48 -15 c-27 -8 -66 -18 -86 -22 l-38 -6 0 -63 c0 -60 26 -142 75 -236 10 -20 191 -558 232 -690 5 -14 7 -45 5 -70 -4 -56 -26 -75 -70 -59 -33 11 -60 62 -86 161 -8 29 -25 87 -39 128 -13 41 -32 102 -42 135 -10 33 -42 121 -71 195 -55 142 -98 266 -108 313 -8 35 -26 35 -26 0 0 -14 -7 -49 -15 -77 -8 -28 -28 -109 -45 -181 -71 -297 -92 -383 -105 -431 -8 -28 -15 -62 -15 -75 0 -59 -19 -94 -60 -112 -49 -21 -46 -21 -70 3 -35 35 -26 115 34 325 65 227 79 283 96 379 6 33 13 63 16 68 3 4 9 33 14 64 13 78 -12 139 -62 152 l-33 8 -7 175 c-4 96 -8 224 -10 286 -4 131 -17 118 142 133 55 5 111 12 124 16 25 6 176 20 249 23 l37 1 0 -212z m2883 175 c87 -7 88 -7 61 -88 -14 -39 -16 -72 -11 -179 3 -73 9 -139 13 -149 8 -22 -24 -23 -81 -3 -22 8 -57 17 -77 21 l-38 6 0 137 c0 75 3 168 7 205 6 64 8 68 27 62 12 -3 56 -9 99 -12z m357 -49 c171 -34 180 -37 180 -53 0 -9 -6 -59 -14 -111 -9 -52 -22 -146 -31 -209 -8 -63 -17 -116 -18 -117 -1 -2 -34 6 -72 17 -39 11 -92 23 -120 28 -72 13 -149 33 -157 40 -4 4 -12 64 -17 134 -8 103 -7 142 5 200 8 40 17 78 19 85 5 15 112 8 225 -14z m-3860 -299 l0 -314 -106 -71 c-59 -39 -108 -69 -111 -67 -2 3 -1 169 3 371 7 362 7 366 28 366 12 0 44 7 71 14 28 8 65 15 83 15 l32 1 0 -315z m-270 -114 l0 -389 -67 -45 c-38 -25 -102 -71 -143 -101 l-75 -56 -12 62 c-7 35 -12 77 -12 93 -1 17 -7 73 -15 125 -9 52 -22 151 -31 220 -9 69 -23 169 -30 222 -8 53 -15 117 -15 141 l0 44 78 12 c70 12 139 24 262 49 25 5 48 10 53 11 4 0 7 -174 7 -388z m4485 354 c115 -18 230 -42 295 -60 25 -7 62 -16 83 -20 l37 -6 -5 -67 c-3 -37 -12 -130 -20 -207 -8 -77 -18 -174 -21 -216 l-5 -76 -52 9 c-52 8 -52 8 -84 -29 -18 -21 -31 -43 -28 -50 2 -6 22 -84 44 -173 23 -88 46 -170 51 -181 13 -23 -6 -99 -25 -99 -39 0 -69 79 -130 335 -25 105 -23 103 -46 70 -11 -17 -24 -39 -29 -50 -6 -11 -41 -69 -80 -128 -38 -60 -70 -112 -70 -116 0 -3 -19 -29 -43 -56 -31 -35 -48 -47 -60 -42 -21 8 -22 46 -2 73 8 10 15 25 15 31 0 11 22 49 113 198 32 52 58 97 100 177 l47 87 -68 44 c-37 25 -95 57 -129 73 -73 34 -71 29 -49 183 8 53 19 139 26 191 13 98 18 120 29 120 3 0 51 -7 106 -15z m-5011 -137 c3 -46 8 -283 12 -528 3 -245 9 -499 13 -565 l6 -120 18 295 c9 162 20 363 24 445 7 160 9 159 38 -5 9 -52 23 -133 31 -180 9 -47 22 -116 30 -155 8 -38 14 -104 14 -145 0 -41 6 -92 14 -115 8 -22 35 -107 61 -190 25 -82 52 -168 59 -190 7 -22 21 -67 31 -100 10 -33 26 -82 35 -110 10 -27 32 -97 50 -155 17 -58 38 -123 45 -145 7 -22 19 -59 26 -83 14 -47 22 -56 61 -66 31 -7 34 1 63 144 9 47 26 121 36 165 54 219 62 240 106 275 l27 21 23 -23 c23 -23 23 -24 12 -168 -6 -80 -17 -170 -25 -201 -8 -31 -14 -68 -14 -82 0 -14 -4 -28 -9 -32 -5 -3 -13 -20 -17 -37 -3 -18 -10 -39 -15 -48 -50 -96 -52 -105 -34 -160 l17 -52 42 6 c22 4 76 9 118 13 l77 6 14 -54 c8 -30 22 -90 32 -134 9 -44 24 -108 31 -142 19 -85 39 -174 58 -258 8 -38 21 -94 28 -124 l12 -53 -72 -69 c-39 -38 -75 -69 -79 -69 -5 0 -28 18 -53 41 -25 22 -72 61 -105 86 -33 25 -64 51 -70 58 -5 6 -48 42 -95 80 -47 37 -87 71 -90 75 -3 3 -39 33 -80 66 -41 32 -91 73 -110 91 -19 17 -61 51 -92 76 l-58 44 125 63 c69 35 125 65 125 67 0 1 -34 103 -75 225 -99 294 -225 671 -259 780 -15 49 -31 90 -35 93 -12 7 -57 -103 -75 -185 -22 -99 -44 -192 -61 -260 -8 -30 -19 -125 -25 -210 -14 -188 -15 -195 -47 -215 -21 -14 -30 -15 -54 -5 -34 14 -33 8 -19 210 6 80 17 235 25 345 20 276 25 395 19 395 -4 0 -19 -11 -36 -25 -16 -14 -38 -25 -49 -25 -22 0 -69 45 -69 66 0 7 -7 25 -15 41 -8 15 -21 44 -29 63 -61 150 -91 219 -94 216 -5 -6 16 -145 34 -223 8 -34 14 -77 14 -95 0 -18 4 -49 10 -68 5 -19 16 -80 24 -134 l14 -99 -56 -113 c-40 -81 -59 -110 -68 -103 -6 5 -28 37 -50 72 -21 34 -71 114 -113 177 -41 63 -108 167 -149 230 -41 63 -95 145 -118 183 -100 154 -135 209 -219 337 -48 74 -114 175 -146 224 -32 49 -56 93 -54 97 3 4 26 19 53 35 26 15 146 93 267 173 121 80 240 152 265 162 25 9 52 19 60 22 8 4 49 18 90 32 41 13 113 38 160 55 56 20 104 30 145 31 33 0 83 4 110 9 28 4 66 8 87 9 l36 1 6 -82z m5586 13 l55 -19 5 -264 c3 -145 7 -256 8 -248 14 88 23 171 32 306 13 191 14 196 43 185 12 -5 51 -17 87 -26 36 -10 87 -25 114 -34 l49 -16 -7 -90 c-3 -49 -11 -220 -17 -380 -5 -159 -13 -312 -17 -339 l-7 -48 -94 88 c-51 49 -101 94 -110 99 -10 6 -82 59 -162 119 -79 60 -145 109 -145 110 -2 1 12 103 41 306 8 58 15 119 15 137 0 18 5 55 11 83 12 58 18 59 99 31z m482 -130 c13 -5 50 -17 83 -26 67 -19 138 -40 205 -62 56 -19 326 -130 362 -149 14 -8 33 -14 41 -14 9 0 17 -3 19 -8 2 -4 66 -38 143 -76 77 -38 230 -121 340 -184 110 -64 212 -121 226 -129 65 -33 70 -25 -200 -297 -138 -139 -251 -258 -251 -265 0 -11 81 57 378 316 64 56 136 119 159 139 l43 36 192 -128 c160 -106 218 -152 340 -267 80 -76 155 -145 165 -152 10 -7 66 -75 123 -151 58 -75 124 -161 147 -190 52 -64 149 -210 193 -288 33 -59 33 -59 9 -52 -13 4 -51 14 -84 23 -33 8 -94 33 -135 55 -148 81 -367 188 -385 188 -4 0 -52 26 -108 58 -56 32 -109 62 -117 66 -41 19 -58 33 -52 42 4 5 57 43 119 84 61 41 110 76 108 78 -2 2 -64 -26 -138 -62 -75 -36 -141 -66 -147 -66 -7 0 -49 18 -93 39 -141 68 -429 191 -449 191 -12 0 -18 -7 -18 -22 0 -13 -3 -33 -6 -44 -6 -24 43 -54 461 -279 115 -62 114 -62 64 -75 -24 -6 -67 -18 -95 -26 -28 -8 -59 -14 -69 -14 -10 0 -41 -7 -69 -15 -46 -13 -189 -48 -376 -91 -36 -9 -90 -21 -120 -29 -106 -25 -155 -37 -215 -51 -33 -7 -118 -27 -189 -44 -71 -17 -130 -29 -131 -28 -1 2 -10 35 -19 73 -10 39 -23 84 -29 101 -9 27 -7 36 14 65 23 32 49 77 49 85 0 2 -36 -10 -80 -25 l-80 -29 0 53 c0 30 11 85 25 126 13 40 22 75 20 78 -3 2 -6 2 -8 0 -78 -111 -106 -183 -107 -276 0 -36 -5 -45 -27 -59 -16 -9 -40 -25 -55 -35 -15 -11 -29 -19 -31 -19 -2 0 -11 17 -20 38 -33 80 -47 124 -47 150 0 15 -3 37 -6 49 l-6 22 -38 -19 -37 -19 -21 22 c-51 56 -34 120 64 235 35 41 64 80 64 85 0 15 -91 197 -99 197 -3 0 -17 20 -31 45 -14 25 -28 45 -32 45 -12 0 -10 151 7 435 8 143 18 326 21 408 3 81 8 147 10 147 1 0 13 -4 26 -9z m-7348 -426 c9 -16 41 -68 71 -115 30 -47 73 -116 97 -155 23 -38 61 -99 84 -135 44 -70 158 -252 177 -285 7 -11 24 -39 40 -62 15 -23 27 -44 27 -47 0 -3 14 -25 30 -49 17 -25 30 -49 30 -55 0 -6 3 -12 8 -14 4 -1 27 -37 52 -78 24 -41 47 -77 51 -80 3 -3 16 -23 28 -45 25 -47 105 -174 121 -192 13 -16 13 -23 12 -166 l-2 -118 -157 141 c-166 147 -343 308 -638 575 -97 88 -241 219 -320 290 -79 72 -184 167 -233 211 l-89 82 89 68 c50 38 97 76 107 85 24 24 108 74 261 155 19 11 37 22 40 25 3 3 19 12 35 20 33 16 42 10 79 -56z m3964 -127 c9 -12 24 -46 70 -163 8 -22 24 -59 34 -82 10 -23 18 -45 18 -48 0 -4 6 -21 14 -38 8 -18 29 -70 46 -117 18 -47 36 -94 40 -105 5 -11 17 -40 28 -65 18 -42 33 -114 67 -317 8 -49 19 -117 25 -153 21 -120 22 -371 6 -975 -9 -330 -16 -644 -16 -699 l0 -98 -187 5 c-104 3 -198 8 -209 12 -21 7 -22 13 -28 253 -3 136 -10 405 -16 597 -6 193 -14 438 -17 546 l-6 196 93 6 c51 4 144 7 206 7 l112 0 -5 103 c-4 97 -36 255 -83 417 -25 85 -98 297 -116 335 -13 29 -66 172 -83 225 -5 14 -20 51 -34 83 -15 32 -24 64 -21 72 7 18 48 20 62 3z m1240 -187 c33 -25 42 -38 51 -81 6 -28 11 -62 11 -75 0 -26 61 -272 79 -318 16 -41 14 -61 -9 -75 -15 -9 -26 -9 -44 -1 -26 12 -42 46 -76 159 -12 41 -25 86 -30 100 -13 41 -38 130 -56 206 -17 69 -17 71 2 91 25 28 24 28 72 -6z m-5765 -121 c56 -50 174 -156 262 -235 338 -307 649 -586 877 -790 222 -198 268 -246 300 -310 50 -103 143 -274 154 -285 7 -7 16 14 28 72 30 139 44 174 73 187 14 6 26 10 28 9 38 -57 46 -80 40 -125 -4 -27 -13 -70 -20 -98 -7 -27 -15 -66 -17 -85 l-3 -35 67 -5 67 -5 435 -428 c427 -420 436 -430 436 -468 0 -37 -1 -39 -32 -39 -18 0 -82 6 -143 14 -60 8 -171 22 -245 31 -74 9 -189 22 -255 30 -268 32 -386 45 -515 60 -128 15 -216 25 -502 60 -68 8 -184 21 -258 30 -74 9 -189 22 -255 30 -66 8 -181 21 -255 30 -335 39 -393 46 -524 63 l-139 18 -14 64 c-30 141 -34 171 -45 323 -10 139 -9 167 5 225 9 37 24 103 33 147 30 141 105 343 153 415 43 64 54 87 42 95 -23 13 -230 7 -306 -9 -157 -35 -415 -128 -477 -172 -49 -35 -51 -32 -22 31 7 17 32 75 54 130 47 113 70 159 152 298 32 54 58 103 58 108 0 5 4 9 9 9 5 0 13 10 17 22 8 25 135 198 146 198 7 0 36 -20 298 -199 69 -47 188 -128 266 -181 178 -120 271 -183 409 -279 61 -41 133 -91 162 -111 28 -19 138 -93 243 -165 105 -71 215 -146 243 -166 29 -19 94 -63 145 -98 51 -35 91 -65 89 -67 -2 -2 -26 0 -53 5 -27 5 -94 17 -149 26 -55 9 -136 22 -180 30 -44 7 -125 21 -180 30 -55 9 -136 22 -180 30 -44 8 -102 17 -130 19 -49 6 -48 5 20 -15 88 -26 152 -43 235 -64 36 -9 88 -23 115 -30 56 -16 231 -61 373 -95 90 -23 119 -40 65 -40 -15 0 -52 -6 -82 -14 -57 -14 -138 -33 -271 -61 -73 -16 -123 -27 -265 -59 -38 -8 -81 -17 -94 -18 -14 -2 -26 -9 -29 -17 -3 -9 2 -11 14 -8 19 6 77 14 307 42 120 15 283 36 443 56 l91 11 74 -57 74 -57 17 53 c14 42 16 73 12 144 -6 90 -7 90 -54 145 -40 46 -51 69 -70 143 -13 48 -27 84 -31 80 -5 -5 -9 -50 -11 -101 l-3 -93 -135 89 c-74 49 -175 115 -225 147 -49 32 -162 106 -250 164 -88 58 -164 108 -170 110 -5 2 -28 16 -50 31 -108 73 -221 147 -230 151 -5 2 -71 44 -145 93 -74 49 -166 109 -205 134 -232 150 -234 151 -335 219 -30 20 -70 45 -89 56 -66 36 -68 32 68 167 69 69 159 152 200 185 41 33 88 72 105 88 17 15 32 27 34 27 2 0 49 -41 105 -90z m5210 -216 c7 -41 -13 -130 -40 -174 -27 -46 -65 -42 -85 9 -14 34 -14 43 -2 66 8 15 14 35 14 44 1 28 26 63 56 77 45 19 51 17 57 -22z m1957 -15 c0 -5 12 -28 26 -50 22 -35 26 -56 30 -138 3 -53 11 -143 19 -201 25 -183 35 -294 27 -302 -4 -3 -18 -9 -32 -13 -20 -5 -32 1 -54 24 -26 27 -29 38 -37 143 -10 121 -33 306 -50 400 -12 70 3 131 35 146 22 10 36 7 36 -9z m-652 -91 c19 -19 15 -31 -34 -104 -63 -92 -93 -124 -121 -124 -21 0 -22 3 -16 48 6 51 32 109 70 160 18 24 32 32 57 32 17 0 37 -5 44 -12z m-3030 -275 c38 -49 55 -85 75 -158 18 -69 37 -290 38 -445 1 -127 12 -102 29 63 29 295 43 356 107 458 40 66 63 84 94 74 18 -6 20 -12 14 -43 -3 -21 -17 -59 -30 -87 -23 -49 -44 -121 -63 -217 l-9 -48 51 0 c28 0 89 7 136 15 106 19 104 19 95 -2 -4 -10 -11 -34 -16 -53 -17 -77 -69 -266 -79 -287 -5 -13 -6 -23 0 -23 5 0 12 10 15 23 4 12 13 37 21 55 8 17 20 47 28 65 7 17 32 78 56 133 l42 101 59 17 c32 9 81 16 107 16 l49 0 12 -162 c7 -90 17 -246 21 -348 9 -207 24 -457 45 -785 20 -298 21 -285 -12 -285 -30 0 -174 24 -273 45 -36 8 -79 17 -97 20 -18 4 -51 23 -74 44 l-43 38 42 83 c23 46 40 86 36 89 -3 3 -34 -24 -67 -62 l-62 -67 -45 36 c-25 20 -53 42 -63 49 -14 10 -16 17 -9 31 6 11 33 78 60 149 41 107 51 145 56 219 4 49 9 99 12 112 4 13 2 24 -3 24 -9 0 -14 -15 -59 -180 -26 -97 -119 -300 -137 -300 -8 0 -101 53 -115 65 -2 2 11 30 27 64 49 95 64 178 56 296 -3 55 -12 125 -19 155 l-13 55 -6 -79 c-4 -43 -7 -106 -7 -139 0 -68 -32 -174 -83 -274 -17 -35 -32 -63 -34 -63 -1 0 -28 13 -60 29 -32 16 -70 34 -85 40 -25 9 -28 16 -28 53 0 24 -6 117 -15 208 -45 503 -49 562 -34 570 7 5 47 21 89 35 117 41 140 53 140 73 0 9 6 27 14 37 12 18 11 32 -9 110 -13 50 -40 139 -59 198 -40 121 -44 152 -19 179 27 31 67 23 101 -19z m2487 -96 c76 -50 95 -69 95 -95 0 -14 7 -63 16 -111 9 -47 21 -109 26 -137 10 -58 5 -55 173 -113 177 -62 180 -64 183 -96 2 -16 -3 -68 -12 -115 -9 -47 -22 -127 -31 -177 -8 -51 -22 -132 -30 -180 -8 -49 -21 -133 -30 -188 -9 -55 -24 -140 -33 -189 l-17 -88 -70 -19 c-39 -10 -86 -18 -105 -18 -34 -1 -36 1 -49 47 -8 26 -22 72 -31 102 -21 67 -80 254 -116 370 -14 47 -32 103 -39 125 -7 22 -21 67 -30 100 -10 33 -23 76 -30 95 -7 19 -25 76 -40 125 -15 50 -36 116 -46 147 -11 32 -19 63 -19 69 0 14 97 8 182 -12 32 -7 60 -11 63 -8 5 5 -12 71 -49 189 -46 147 -49 160 -38 185 7 14 15 25 20 25 4 0 30 -15 57 -33z m1899 -121 c-3 -11 -12 -28 -19 -36 -6 -8 -21 -36 -31 -63 -20 -48 -23 -51 -86 -62 -34 -5 -38 -4 -44 20 -9 35 22 131 44 138 9 3 34 12 55 20 53 19 90 12 81 -17z m1999 -100 c73 -44 303 -284 376 -391 l68 -102 -171 -7 c-94 -3 -502 -11 -906 -16 -404 -5 -749 -12 -766 -15 -28 -5 -36 -1 -61 32 -66 86 -66 86 -48 168 l17 74 56 11 c32 6 82 18 112 25 30 7 118 28 195 45 77 17 165 37 195 45 30 7 89 21 130 30 71 15 98 22 260 59 36 8 97 22 135 31 39 9 122 28 185 43 128 31 116 33 223 -32z m-4712 -67 c42 -6 81 -14 88 -18 7 -5 14 -97 20 -290 5 -155 12 -285 15 -288 3 -4 6 16 6 43 0 27 5 159 12 293 l12 243 160 -4 c89 -2 170 -9 181 -15 14 -8 31 -45 54 -120 19 -59 51 -160 71 -223 21 -63 68 -209 105 -325 37 -115 73 -226 80 -245 7 -19 33 -97 57 -174 l45 -138 -80 -97 c-44 -53 -91 -114 -106 -136 -14 -22 -29 -42 -34 -43 -4 -2 -14 -17 -22 -33 l-16 -29 -251 0 c-224 0 -428 9 -585 26 l-53 5 0 77 c-1 72 8 264 45 1057 9 176 15 351 15 388 l0 68 53 -6 c28 -3 86 -11 128 -16z m2141 -67 c3 -4 14 -36 23 -72 18 -66 28 -138 41 -307 4 -51 10 -90 14 -88 5 3 24 29 43 58 26 39 45 56 71 64 33 10 36 9 36 -8 0 -11 -18 -50 -40 -86 -52 -86 -62 -120 -52 -169 7 -34 12 -39 39 -42 21 -2 34 -11 42 -28 17 -38 13 -55 -25 -109 -92 -130 -117 -175 -97 -175 3 0 36 28 73 63 36 34 88 83 115 108 28 26 65 73 84 105 19 33 42 72 51 87 l17 28 32 -33 c31 -31 32 -36 28 -93 -7 -94 -25 -130 -99 -200 -37 -35 -76 -82 -87 -104 -21 -41 -30 -49 -116 -104 -55 -35 -149 -127 -392 -380 -130 -136 -166 -168 -184 -165 -17 2 -26 12 -32 39 -12 54 17 104 110 186 162 143 225 208 261 273 20 36 42 71 48 78 11 11 5 65 -9 79 -3 2 -20 -15 -38 -39 -18 -24 -36 -45 -40 -48 -3 -3 -21 -16 -38 -30 -18 -14 -79 -62 -136 -107 -57 -46 -106 -83 -109 -83 -3 0 6 21 20 48 14 26 60 112 101 192 42 80 88 168 103 195 15 28 56 104 90 170 l62 119 -12 61 c-7 33 -18 85 -25 115 -27 113 -44 218 -50 319 l-6 103 38 -7 c21 -3 41 -10 45 -13z m887 -184 c7 -24 26 -75 41 -115 15 -40 25 -74 23 -77 -3 -2 -39 -2 -81 1 -78 5 -83 7 -189 78 l-43 28 43 23 c23 12 74 40 112 62 39 22 73 40 76 41 3 1 12 -18 18 -41z m-5035 -14 c3 -9 6 -34 6 -57 0 -23 6 -103 15 -177 13 -127 40 -388 51 -509 4 -46 2 -52 -12 -47 -8 3 -43 6 -77 6 l-62 0 -18 68 c-10 37 -26 99 -37 137 -24 89 -44 172 -65 260 -15 64 -33 137 -55 224 -5 19 -7 37 -5 39 2 2 35 13 72 24 37 10 88 25 113 32 61 18 67 18 74 0z m3402 -12 c5 -5 42 -21 82 -37 39 -15 72 -32 72 -38 0 -5 -12 -52 -26 -105 -15 -54 -30 -113 -34 -132 -4 -19 -18 -71 -30 -115 -12 -44 -26 -96 -30 -115 -14 -63 -71 -284 -80 -310 -5 -14 -11 -42 -15 -64 l-6 -38 -46 7 c-74 11 -74 11 -68 69 4 28 13 85 20 126 8 41 21 118 30 170 40 237 47 280 60 350 8 41 17 95 20 120 8 61 24 120 33 120 5 0 12 -4 18 -8z m-7195 -144 c0 -46 6 -137 12 -203 9 -89 10 -167 2 -301 l-10 -181 -65 -95 c-35 -53 -71 -100 -80 -105 -8 -6 -60 -33 -115 -62 -65 -35 -115 -69 -144 -99 -73 -79 -151 -178 -151 -193 0 -8 -8 -38 -18 -67 -17 -48 -19 -50 -29 -29 -6 12 -32 67 -58 122 -25 55 -51 109 -57 120 -17 30 -47 201 -48 268 0 33 6 73 14 90 28 62 76 190 76 200 0 20 553 557 605 587 28 16 53 30 58 30 4 0 7 -37 8 -82z m7499 15 c19 -8 47 -21 62 -29 14 -8 31 -14 37 -14 5 0 32 -17 59 -37 37 -27 48 -41 42 -52 -15 -32 -50 -110 -125 -281 -42 -96 -87 -197 -99 -225 -13 -27 -42 -95 -66 -149 -23 -54 -45 -106 -50 -115 -4 -9 -13 -28 -20 -43 l-13 -27 -51 37 c-120 86 -116 79 -90 171 9 31 22 79 30 106 7 28 20 73 28 100 7 28 21 79 31 115 10 36 23 85 30 110 7 25 20 74 30 110 9 36 23 85 31 110 7 25 19 67 26 93 12 46 14 47 43 41 16 -3 46 -13 65 -21z m3477 -95 c15 -24 53 -123 59 -154 l6 -30 -189 -17 c-103 -10 -271 -24 -373 -33 -102 -8 -264 -21 -360 -29 -96 -8 -256 -21 -355 -29 -99 -8 -268 -22 -375 -31 -107 -9 -269 -23 -360 -31 -91 -8 -192 -15 -225 -15 -62 -1 -135 22 -135 43 0 6 -8 30 -18 52 -39 85 -52 117 -52 122 0 13 21 -11 56 -63 21 -32 46 -67 56 -77 17 -19 18 -19 26 5 5 13 19 68 32 121 12 54 27 95 31 92 5 -3 9 -13 9 -23 0 -10 6 -37 14 -62 7 -24 19 -63 25 -87 7 -24 17 -42 22 -40 6 2 23 33 37 69 15 35 45 93 67 128 l39 63 166 -7 c95 -3 370 0 650 9 267 9 595 16 730 17 135 1 270 4 300 9 85 11 108 11 117 -2z m-3172 -78 c4 -6 21 -17 38 -24 18 -8 40 -20 49 -27 19 -16 28 5 -146 -334 -45 -88 -129 -251 -186 -362 -56 -112 -106 -203 -109 -203 -4 0 -24 20 -45 45 -43 53 -44 46 24 190 122 257 160 337 160 340 0 2 29 63 64 137 34 73 75 159 90 191 25 53 47 70 61 47z m3865 -187 c92 -142 107 -173 121 -247 5 -28 23 -114 41 -191 36 -152 36 -145 4 -380 -12 -93 -18 -109 -81 -225 -37 -69 -117 -200 -179 -292 -121 -183 -122 -184 -125 -65 -2 77 -30 243 -47 284 -29 65 -41 95 -80 188 -20 49 -47 105 -59 125 -25 39 -45 95 -70 190 -10 36 -24 87 -32 114 -14 45 -14 56 2 125 9 42 21 96 27 121 5 25 31 91 58 147 41 86 55 106 92 130 24 15 45 31 48 34 12 15 87 49 110 50 14 0 34 4 45 9 11 5 25 9 31 9 7 1 49 -56 94 -126z m-8816 -18 c286 -256 420 -377 499 -451 91 -86 89 -75 41 -253 -4 -13 -97 74 -604 567 l-224 219 54 26 c30 14 61 26 69 26 7 1 81 -60 165 -134z m8206 14 c0 -12 8 -59 17 -105 10 -46 15 -85 12 -89 -3 -3 -311 -5 -685 -5 -373 0 -780 -5 -904 -11 -124 -6 -287 -14 -362 -17 -110 -6 -139 -4 -143 6 -10 26 -5 32 26 32 17 0 73 6 123 14 50 8 163 22 251 30 88 9 223 23 300 31 77 8 210 22 295 30 85 9 216 22 290 30 74 8 205 21 290 30 85 8 207 21 270 29 63 7 139 14 168 15 47 1 52 -1 52 -20z m-2509 -228 c67 -61 96 -74 229 -106 41 -10 80 -19 86 -21 7 -1 17 -36 24 -76 7 -40 18 -107 25 -148 8 -41 17 -100 21 -130 13 -109 20 -89 37 107 10 109 17 203 17 210 0 11 27 20 180 59 80 20 225 23 945 15 187 -2 411 3 628 15 185 10 339 15 343 12 28 -29 33 -286 8 -377 -24 -85 -57 -126 -128 -160 l-61 -28 -335 -6 c-184 -3 -420 -10 -525 -16 -317 -19 -863 -50 -1172 -66 -161 -8 -425 -22 -585 -30 -161 -9 -372 -20 -468 -25 -214 -12 -220 -12 -220 -1 0 5 30 32 68 60 103 78 148 114 266 219 292 259 458 422 502 495 20 31 39 57 43 57 5 0 37 -26 72 -59z m-8111 -375 c52 -8 149 -22 215 -31 66 -9 167 -23 225 -30 58 -8 157 -22 220 -30 63 -9 160 -22 215 -30 55 -7 156 -21 225 -30 69 -9 170 -22 225 -30 55 -8 154 -21 220 -30 66 -9 165 -22 220 -30 55 -8 156 -21 225 -30 69 -9 184 -25 255 -35 123 -18 203 -29 460 -64 61 -9 135 -18 165 -21 l55 -6 -12 -112 c-7 -62 -16 -147 -19 -189 l-6 -78 -361 0 c-199 0 -645 -7 -992 -15 -346 -8 -810 -15 -1030 -16 l-400 -1 -45 90 c-136 271 -147 300 -185 492 -10 47 -24 110 -31 141 -22 91 -20 99 24 99 20 0 80 -6 132 -14z m4269 -210 c81 -21 175 -42 266 -60 133 -26 567 -46 1023 -46 l420 0 -14 -57 c-9 -32 -19 -74 -24 -93 -18 -72 -59 -212 -62 -214 -2 -1 -194 4 -428 10 -234 7 -564 13 -735 13 -170 1 -341 4 -379 8 l-68 6 5 66 c5 81 -6 156 -37 253 -30 92 -38 128 -29 128 4 0 32 -6 62 -14z m6015 -208 c-18 -60 -77 -168 -117 -214 -24 -29 -52 -63 -63 -76 l-19 -24 -460 7 c-253 4 -683 8 -956 8 -273 1 -718 4 -990 8 l-495 6 -17 76 c-30 136 -31 128 27 134 28 4 125 9 216 12 156 5 529 22 1025 45 121 6 467 15 770 21 302 6 552 12 554 15 2 2 123 4 268 4 l264 0 -7 -22z m-5111 -374 c186 -8 417 -14 513 -14 l175 0 -8 -52 c-4 -29 -7 -116 -6 -192 l3 -139 -302 6 c-166 4 -537 7 -826 7 l-524 0 7 63 c3 34 12 98 20 142 7 44 16 106 20 137 6 52 9 57 33 61 45 7 535 -3 895 -19z m3322 -121 c-4 -65 -12 -140 -20 -168 -7 -27 -15 -64 -18 -81 -8 -44 -114 -268 -194 -411 -35 -63 -45 -68 -82 -39 -14 11 -47 31 -71 43 -8 4 -69 39 -135 78 -66 39 -127 74 -135 78 -8 4 -35 20 -60 35 -25 15 -108 63 -184 107 -76 44 -157 91 -180 105 -24 14 -86 50 -139 80 l-97 55 0 80 c0 44 3 97 6 118 l7 37 654 0 654 0 -6 -117z m1505 99 c0 -10 -98 -104 -134 -128 -16 -10 -46 -30 -66 -44 -21 -14 -57 -54 -80 -90 -24 -36 -51 -77 -60 -91 -10 -14 -46 -81 -80 -149 l-61 -122 11 -112 c7 -71 19 -127 32 -154 11 -24 18 -45 15 -48 -12 -13 -279 52 -352 86 -22 10 -67 30 -100 45 -100 44 -143 67 -162 84 -10 9 -38 29 -61 44 -68 44 -102 78 -128 127 -14 25 -33 59 -44 75 -26 40 -49 92 -60 135 -5 19 -16 60 -25 90 -25 84 -32 119 -39 193 l-5 67 699 0 c385 0 700 -4 700 -8z m-8665 -67 c462 -3 1005 -5 1206 -5 l366 0 11 -147 c7 -82 13 -184 14 -227 l1 -79 -49 -19 c-27 -11 -67 -27 -89 -37 -109 -50 -135 -61 -141 -61 -3 0 -29 -11 -57 -24 -119 -54 -147 -66 -153 -66 -3 0 -31 -12 -62 -26 -172 -78 -224 -97 -232 -84 -4 7 -16 37 -26 69 -10 31 -19 58 -21 60 -4 5 -47 -24 -80 -55 -15 -14 -48 -40 -71 -57 -24 -18 -66 -59 -92 -92 -26 -33 -77 -96 -113 -141 -57 -72 -65 -88 -77 -150 -7 -38 -19 -94 -26 -125 -8 -31 -14 -65 -14 -75 0 -11 -11 -47 -23 -81 l-23 -63 -84 70 c-47 38 -125 103 -175 145 -49 41 -130 108 -180 149 -49 40 -99 84 -110 96 -11 13 -117 111 -235 220 -233 214 -269 251 -345 356 -54 76 -203 279 -244 334 -32 42 -71 108 -71 120 0 4 80 6 178 4 97 -2 555 -6 1017 -9z m5940 -341 c61 -31 166 -87 235 -123 69 -37 145 -77 170 -90 113 -58 490 -258 509 -270 10 -7 -7 -43 -80 -165 -52 -87 -105 -176 -118 -199 -13 -23 -37 -61 -52 -85 -16 -24 -29 -45 -29 -47 0 -2 -34 -60 -75 -129 -41 -69 -75 -127 -75 -130 0 -3 -13 -24 -29 -48 -16 -24 -39 -61 -51 -83 -12 -22 -29 -53 -39 -70 -10 -16 -48 -82 -85 -145 -37 -63 -71 -119 -76 -123 -10 -11 -38 16 -70 68 -13 22 -28 45 -33 50 -6 8 -217 324 -287 429 -8 13 -86 129 -172 258 -87 130 -158 239 -158 243 0 8 44 63 102 127 18 20 46 60 61 90 15 29 46 85 67 123 22 39 39 79 40 91 0 11 4 24 9 30 5 5 14 25 19 44 9 28 53 155 77 219 4 9 9 10 18 3 7 -6 62 -37 122 -68z m-2300 -94 c215 -6 510 -13 656 -16 l266 -6 17 -87 c16 -79 27 -110 74 -211 18 -36 106 -165 129 -188 7 -7 27 -35 45 -60 18 -26 40 -56 50 -66 22 -24 22 -25 -2 -111 -11 -38 -25 -92 -30 -118 -5 -27 -13 -53 -17 -60 -3 -6 -10 -27 -14 -46 -9 -38 -52 -203 -89 -336 -12 -44 -26 -93 -30 -110 -4 -16 -18 -66 -30 -110 -25 -88 -25 -90 -69 -260 -17 -66 -35 -133 -40 -150 -13 -44 -37 -130 -56 -205 -10 -36 -23 -85 -30 -110 -7 -25 -20 -74 -30 -110 -10 -36 -23 -85 -30 -110 -7 -25 -20 -74 -30 -110 -9 -36 -23 -87 -31 -115 -19 -65 -73 -260 -84 -305 -13 -50 -35 -136 -53 -200 -46 -167 -60 -220 -73 -265 -8 -27 -17 -67 -21 -88 -3 -21 -12 -41 -19 -44 -8 -3 -47 7 -86 22 -40 14 -86 30 -103 35 -16 5 -75 25 -130 45 -55 20 -113 40 -130 45 -16 6 -39 14 -50 19 -11 5 -40 17 -65 27 -25 9 -63 25 -85 34 -22 9 -60 25 -85 35 -25 10 -59 24 -77 31 -17 8 -35 14 -40 14 -9 0 -26 80 -58 275 -9 55 -23 136 -30 180 -8 44 -21 125 -30 180 -9 55 -22 136 -30 180 -7 44 -21 125 -30 180 -9 55 -22 136 -30 180 -7 44 -21 127 -30 185 -9 58 -22 141 -30 185 -7 44 -21 125 -30 180 -9 55 -22 136 -30 180 -7 44 -21 125 -30 180 -9 55 -22 136 -30 180 -7 44 -20 123 -29 175 -68 413 -76 460 -92 511 -14 43 -13 48 12 105 34 77 64 180 64 223 l0 34 218 -6 c119 -3 393 -11 607 -17z m-1896 -247 c47 -62 106 -128 131 -146 25 -19 78 -58 118 -87 l73 -53 -6 -46 c-4 -25 -13 -71 -20 -101 -7 -30 -21 -91 -30 -135 -9 -44 -23 -107 -30 -140 -7 -33 -21 -96 -30 -140 -9 -44 -23 -104 -30 -133 -10 -40 -11 -52 -2 -49 7 2 14 12 15 23 2 10 30 98 62 194 31 96 81 248 110 338 l53 162 88 0 c82 0 93 3 182 44 52 24 119 59 150 79 l56 36 10 -50 c6 -28 11 -58 11 -67 0 -9 9 -62 21 -117 22 -107 38 -196 64 -340 9 -49 22 -124 30 -165 8 -41 22 -118 30 -170 9 -52 23 -126 30 -165 7 -38 20 -113 30 -165 9 -52 22 -126 30 -165 7 -38 20 -113 29 -165 9 -52 23 -129 31 -170 8 -41 21 -115 30 -165 9 -49 22 -124 30 -165 8 -41 22 -118 31 -170 9 -52 22 -126 29 -165 7 -38 21 -113 30 -165 9 -52 23 -126 31 -164 14 -68 18 -116 10 -116 -7 0 -569 278 -610 302 -22 13 -142 91 -267 174 l-228 151 -290 278 c-159 154 -306 300 -325 325 -19 25 -48 59 -63 75 -16 17 -60 68 -99 115 -38 47 -74 90 -80 95 -17 15 -220 416 -234 461 -6 22 -15 53 -20 69 -19 70 -60 212 -70 242 -31 93 -39 149 -41 297 l-2 159 112 53 c62 30 114 54 116 54 3 0 37 15 77 34 201 93 250 116 254 116 4 0 156 70 229 105 17 8 36 14 44 12 8 -1 53 -52 100 -114z m5595 -428 c8 -22 28 -78 46 -125 18 -47 36 -103 40 -125 4 -22 18 -83 29 -135 12 -52 27 -122 32 -154 6 -33 12 -63 15 -68 5 -8 -7 -179 -27 -373 -6 -55 -21 -131 -34 -170 -35 -105 -82 -229 -111 -293 -30 -65 -50 -110 -92 -202 -24 -53 -48 -83 -136 -167 -58 -57 -111 -103 -117 -103 -6 0 -30 -14 -54 -30 -44 -30 -135 -73 -141 -67 -3 3 9 39 83 247 19 52 41 120 49 150 9 30 22 75 29 100 54 187 55 192 55 349 0 88 -6 190 -14 240 -40 239 -47 293 -47 358 0 39 7 101 16 137 8 37 15 79 15 93 0 13 13 52 28 86 16 34 37 84 48 110 20 52 170 241 213 269 l26 18 18 -53 c10 -28 24 -70 31 -92z m-2012 4 c26 -35 65 -87 85 -115 21 -29 85 -114 143 -190 414 -544 540 -716 540 -732 0 -10 -4 -22 -8 -27 -5 -6 -39 -74 -75 -152 -63 -134 -201 -422 -253 -526 -13 -26 -26 -64 -29 -85 -7 -45 -32 -156 -52 -237 -25 -99 -8 -339 36 -505 7 -25 19 -71 27 -102 8 -32 21 -84 29 -115 7 -32 16 -73 19 -91 7 -40 41 -129 110 -287 32 -72 28 -66 94 -154 l53 -72 -53 6 c-29 3 -93 12 -143 20 -49 8 -139 21 -200 30 -244 35 -312 46 -365 60 -30 9 -107 29 -170 45 -137 36 -218 57 -285 75 -27 8 -76 21 -107 30 -56 14 -122 33 -218 60 -25 7 -74 20 -110 30 -36 10 -83 23 -105 30 -22 8 -61 19 -87 25 -51 13 -53 16 -39 52 5 13 17 52 26 88 9 36 23 83 30 105 7 22 20 69 30 105 10 36 26 90 35 120 17 52 30 96 65 220 31 107 48 165 60 205 7 22 20 69 30 105 10 36 23 83 30 105 7 22 21 69 30 105 10 36 23 83 31 105 7 22 20 67 29 100 36 129 75 262 86 295 5 14 13 43 18 65 5 22 14 54 20 70 6 17 17 55 25 85 9 30 29 102 46 160 17 58 38 130 46 160 8 30 21 73 28 95 8 22 21 69 31 105 9 36 23 85 31 110 7 25 20 70 29 100 29 101 48 165 65 220 l18 55 128 57 c71 31 133 56 139 54 5 -1 31 -31 57 -67z m-4613 -591 c1 -10 7 -35 15 -55 30 -81 45 -153 56 -269 16 -168 1 -292 -47 -389 -51 -104 -63 -120 -118 -163 -54 -42 -193 -185 -237 -243 -15 -19 -41 -71 -58 -115 -17 -43 -40 -99 -50 -124 -10 -25 -22 -55 -25 -67 -4 -13 -9 -23 -13 -23 -10 0 -55 174 -102 395 -5 22 -9 101 -10 176 0 128 2 142 31 220 16 46 37 104 44 129 15 49 60 122 98 161 13 13 45 53 72 89 27 36 52 67 55 70 4 3 38 43 75 90 38 47 74 90 80 95 6 6 31 34 55 64 l44 54 17 -39 c10 -22 18 -47 18 -56z"/>
 <path d="M3818 12107 c-27 -6 -48 -14 -48 -17 0 -8 183 -130 195 -130 11 0 2 22 -40 93 -21 37 -44 66 -50 66 -5 -1 -31 -6 -57 -12z"/>
 <path d="M9183 12312 c3 -20 9 -77 13 -125 4 -48 10 -86 13 -85 9 4 78 81 125 140 27 34 34 49 25 52 -8 2 -36 12 -64 21 -27 9 -65 21 -84 25 l-33 8 5 -36z"/>
 <path d="M2900 7696 c0 -2 9 -6 20 -9 11 -3 18 -1 14 4 -5 9 -34 13 -34 5z"/>
 <path d="M2995 7260 c-8 -13 5 -13 25 0 13 8 13 10 -2 10 -9 0 -20 -4 -23 -10z"/>
 </g>

</svg>