<?xml version="1.0"?>
<!-- Generated by SVGo -->
<svg width="119.252mm" height="119.252mm"
     viewBox="0.000 0.000 119.252 119.252"
     xmlns="http://www.w3.org/2000/svg" 
     xmlns:xlink="http://www.w3.org/1999/xlink">
<polygon points="110.251,5.001 110.565,5.013 110.877,5.050 111.185,5.111 111.488,5.196 111.782,5.305 112.067,5.436 112.341,5.590 112.603,5.764 112.849,5.959 113.080,6.172 113.293,6.403 113.488,6.649 113.662,6.911 113.816,7.185 113.947,7.470 114.056,7.764 114.141,8.067 114.202,8.375 114.239,8.687 114.252,9.001 114.251,110.251 114.239,110.565 114.202,110.877 114.141,111.185 114.056,111.488 113.947,111.782 113.816,112.067 113.662,112.341 113.488,112.603 113.293,112.849 113.080,113.080 112.849,113.293 112.603,113.488 112.341,113.662 112.067,113.816 111.782,113.947 111.488,114.056 111.185,114.141 110.877,114.202 110.565,114.239 110.251,114.252 9.001,114.251 8.687,114.239 8.375,114.202 8.067,114.141 7.764,114.056 7.470,113.947 7.185,113.816 6.911,113.662 6.649,113.488 6.403,113.293 6.172,113.080 5.959,112.849 5.764,112.603 5.590,112.341 5.436,112.067 5.305,111.782 5.196,111.488 5.111,111.185 5.050,110.877 5.013,110.565 5.000,110.251 5.001,9.001 5.013,8.687 5.050,8.375 5.111,8.067 5.196,7.764 5.305,7.470 5.436,7.185 5.590,6.911 5.764,6.649 5.959,6.403 6.172,6.172 6.403,5.959 6.649,5.764 6.911,5.590 7.185,5.436 7.470,5.305 7.764,5.196 8.067,5.111 8.375,5.050 8.687,5.013 9.001,5.000" style="fill:none;stroke-width:0.050000mm;stroke:black"/>
<polygon points="110.211,109.087 109.723,109.336 109.336,109.723 109.087,110.211 109.001,110.751 109.087,111.292 109.336,111.780 109.723,112.167 110.211,112.416 110.751,112.501 111.292,112.416 111.780,112.167 112.167,111.780 112.416,111.292 112.501,110.751 112.416,110.211 112.167,109.723 111.780,109.336 111.292,109.087 110.751,109.001" style="fill:none;stroke-width:0.050000mm;stroke:black"/>
<polygon points="7.960,109.087 7.472,109.336 7.085,109.723 6.836,110.211 6.751,110.751 6.836,111.292 7.085,111.780 7.472,112.167 7.960,112.416 8.501,112.501 9.041,112.416 9.529,112.167 9.916,111.780 10.165,111.292 10.251,110.751 10.165,110.211 9.916,109.723 9.529,109.336 9.041,109.087 8.501,109.001" style="fill:none;stroke-width:0.050000mm;stroke:black"/>
<polygon points="110.211,6.836 109.723,7.085 109.336,7.472 109.087,7.960 109.001,8.501 109.087,9.041 109.336,9.529 109.723,9.916 110.211,10.165 110.751,10.251 111.292,10.165 111.780,9.916 112.167,9.529 112.416,9.041 112.501,8.501 112.416,7.960 112.167,7.472 111.780,7.085 111.292,6.836 110.751,6.751" style="fill:none;stroke-width:0.050000mm;stroke:black"/>
<polygon points="7.960,6.836 7.472,7.085 7.085,7.472 6.836,7.960 6.751,8.501 6.836,9.041 7.085,9.529 7.472,9.916 7.960,10.165 8.501,10.251 9.041,10.165 9.529,9.916 9.916,9.529 10.165,9.041 10.251,8.501 10.165,7.960 9.916,7.472 9.529,7.085 9.041,6.836 8.501,6.751" style="fill:none;stroke-width:0.050000mm;stroke:black"/>
</svg>
