<?xml version="1.0"?>
<!-- Generated by SVGo -->
<svg width="119.252mm" height="119.252mm"
     viewBox="0.000 0.000 119.252 119.252"
     xmlns="http://www.w3.org/2000/svg" 
     xmlns:xlink="http://www.w3.org/1999/xlink">
<polygon points="110.251,5.001 110.565,5.013 110.877,5.050 111.185,5.111 111.488,5.196 111.782,5.305 112.067,5.436 112.341,5.590 112.603,5.764 112.849,5.959 113.080,6.172 113.293,6.403 113.488,6.649 113.662,6.911 113.816,7.185 113.947,7.470 114.056,7.764 114.141,8.067 114.202,8.375 114.239,8.687 114.252,9.001 114.251,110.251 114.239,110.565 114.202,110.877 114.141,111.185 114.056,111.488 113.947,111.782 113.816,112.067 113.662,112.341 113.488,112.603 113.293,112.849 113.080,113.080 112.849,113.293 112.603,113.488 112.341,113.662 112.067,113.816 111.782,113.947 111.488,114.056 111.185,114.141 110.877,114.202 110.565,114.239 110.251,114.252 9.001,114.251 8.687,114.239 8.375,114.202 8.067,114.141 7.764,114.056 7.470,113.947 7.185,113.816 6.911,113.662 6.649,113.488 6.403,113.293 6.172,113.080 5.959,112.849 5.764,112.603 5.590,112.341 5.436,112.067 5.305,111.782 5.196,111.488 5.111,111.185 5.050,110.877 5.013,110.565 5.000,110.251 5.001,9.001 5.013,8.687 5.050,8.375 5.111,8.067 5.196,7.764 5.305,7.470 5.436,7.185 5.590,6.911 5.764,6.649 5.959,6.403 6.172,6.172 6.403,5.959 6.649,5.764 6.911,5.590 7.185,5.436 7.470,5.305 7.764,5.196 8.067,5.111 8.375,5.050 8.687,5.013 9.001,5.000" style="fill:none;stroke-width:0.050000mm;stroke:black"/>
<polygon points="110.211,109.087 109.723,109.336 109.336,109.723 109.087,110.211 109.001,110.751 109.087,111.292 109.336,111.780 109.723,112.167 110.211,112.416 110.751,112.501 111.292,112.416 111.780,112.167 112.167,111.780 112.416,111.292 112.501,110.751 112.416,110.211 112.167,109.723 111.780,109.336 111.292,109.087 110.751,109.001" style="fill:none;stroke-width:0.050000mm;stroke:black"/>
<polygon points="7.960,109.087 7.472,109.336 7.085,109.723 6.836,110.211 6.751,110.751 6.836,111.292 7.085,111.780 7.472,112.167 7.960,112.416 8.501,112.501 9.041,112.416 9.529,112.167 9.916,111.780 10.165,111.292 10.251,110.751 10.165,110.211 9.916,109.723 9.529,109.336 9.041,109.087 8.501,109.001" style="fill:none;stroke-width:0.050000mm;stroke:black"/>
<polygon points="14.525,90.726 14.525,91.325 13.725,91.325 13.725,104.126 14.525,104.126 14.525,104.726 28.526,104.726 28.526,104.126 29.326,104.126 29.326,91.325 28.526,91.325 28.526,90.726" style="fill:none;stroke-width:0.050000mm;stroke:black"/>
<polygon points="33.576,90.726 33.576,91.325 32.776,91.325 32.776,104.126 33.576,104.126 33.576,104.726 47.576,104.726 47.576,104.126 48.376,104.126 48.376,91.325 47.576,91.325 47.576,90.726" style="fill:none;stroke-width:0.050000mm;stroke:black"/>
<polygon points="52.626,90.726 52.626,91.325 51.826,91.325 51.826,104.126 52.626,104.126 52.626,104.726 66.626,104.726 66.626,104.126 67.426,104.126 67.426,91.325 66.626,91.325 66.626,90.726" style="fill:none;stroke-width:0.050000mm;stroke:black"/>
<polygon points="71.676,90.726 71.676,91.325 70.876,91.325 70.876,104.126 71.676,104.126 71.676,104.726 85.676,104.726 85.676,104.126 86.476,104.126 86.476,91.325 85.676,91.325 85.676,90.726" style="fill:none;stroke-width:0.050000mm;stroke:black"/>
<polygon points="90.726,90.726 90.726,91.325 89.926,91.325 89.926,104.126 90.726,104.126 90.726,104.726 104.726,104.726 104.726,104.126 105.525,104.126 105.525,91.325 104.726,91.325 104.726,90.726" style="fill:none;stroke-width:0.050000mm;stroke:black"/>
<polygon points="14.525,71.676 14.525,72.275 13.725,72.275 13.725,85.076 14.525,85.076 14.525,85.676 28.526,85.676 28.526,85.076 29.326,85.076 29.326,72.275 28.526,72.275 28.526,71.676" style="fill:none;stroke-width:0.050000mm;stroke:black"/>
<polygon points="33.576,71.676 33.576,72.275 32.776,72.275 32.776,85.076 33.576,85.076 33.576,85.676 47.576,85.676 47.576,85.076 48.376,85.076 48.376,72.275 47.576,72.275 47.576,71.676" style="fill:none;stroke-width:0.050000mm;stroke:black"/>
<polygon points="52.626,71.676 52.626,72.275 51.826,72.275 51.826,85.076 52.626,85.076 52.626,85.676 66.626,85.676 66.626,85.076 67.426,85.076 67.426,72.275 66.626,72.275 66.626,71.676" style="fill:none;stroke-width:0.050000mm;stroke:black"/>
<polygon points="71.676,71.676 71.676,72.275 70.876,72.275 70.876,85.076 71.676,85.076 71.676,85.676 85.676,85.676 85.676,85.076 86.476,85.076 86.476,72.275 85.676,72.275 85.676,71.676" style="fill:none;stroke-width:0.050000mm;stroke:black"/>
<polygon points="90.726,71.676 90.726,72.275 89.926,72.275 89.926,85.076 90.726,85.076 90.726,85.676 104.726,85.676 104.726,85.076 105.525,85.076 105.525,72.275 104.726,72.275 104.726,71.676" style="fill:none;stroke-width:0.050000mm;stroke:black"/>
<polygon points="14.525,52.626 14.525,53.226 13.725,53.226 13.725,66.026 14.525,66.026 14.525,66.626 28.526,66.626 28.526,66.026 29.326,66.026 29.326,53.226 28.526,53.226 28.526,52.626" style="fill:none;stroke-width:0.050000mm;stroke:black"/>
<polygon points="33.576,52.626 33.576,53.226 32.776,53.226 32.776,66.026 33.576,66.026 33.576,66.626 47.576,66.626 47.576,66.026 48.376,66.026 48.376,53.226 47.576,53.226 47.576,52.626" style="fill:none;stroke-width:0.050000mm;stroke:black"/>
<polygon points="52.626,52.626 52.626,53.226 51.826,53.226 51.826,66.026 52.626,66.026 52.626,66.626 66.626,66.626 66.626,66.026 67.426,66.026 67.426,53.226 66.626,53.226 66.626,52.626" style="fill:none;stroke-width:0.050000mm;stroke:black"/>
<polygon points="71.676,52.626 71.676,53.226 70.876,53.226 70.876,66.026 71.676,66.026 71.676,66.626 85.676,66.626 85.676,66.026 86.476,66.026 86.476,53.226 85.676,53.226 85.676,52.626" style="fill:none;stroke-width:0.050000mm;stroke:black"/>
<polygon points="90.726,52.626 90.726,53.226 89.926,53.226 89.926,66.026 90.726,66.026 90.726,66.626 104.726,66.626 104.726,66.026 105.525,66.026 105.525,53.226 104.726,53.226 104.726,52.626" style="fill:none;stroke-width:0.050000mm;stroke:black"/>
<polygon points="14.525,33.576 14.525,34.176 13.725,34.176 13.725,46.976 14.525,46.976 14.525,47.576 28.526,47.576 28.526,46.976 29.326,46.976 29.326,34.176 28.526,34.176 28.526,33.576" style="fill:none;stroke-width:0.050000mm;stroke:black"/>
<polygon points="33.576,33.576 33.576,34.176 32.776,34.176 32.776,46.976 33.576,46.976 33.576,47.576 47.576,47.576 47.576,46.976 48.376,46.976 48.376,34.176 47.576,34.176 47.576,33.576" style="fill:none;stroke-width:0.050000mm;stroke:black"/>
<polygon points="52.626,33.576 52.626,34.176 51.826,34.176 51.826,46.976 52.626,46.976 52.626,47.576 66.626,47.576 66.626,46.976 67.426,46.976 67.426,34.176 66.626,34.176 66.626,33.576" style="fill:none;stroke-width:0.050000mm;stroke:black"/>
<polygon points="71.676,33.576 71.676,34.176 70.876,34.176 70.876,46.976 71.676,46.976 71.676,47.576 85.676,47.576 85.676,46.976 86.476,46.976 86.476,34.176 85.676,34.176 85.676,33.576" style="fill:none;stroke-width:0.050000mm;stroke:black"/>
<polygon points="90.726,33.576 90.726,34.176 89.926,34.176 89.926,46.976 90.726,46.976 90.726,47.576 104.726,47.576 104.726,46.976 105.525,46.976 105.525,34.176 104.726,34.176 104.726,33.576" style="fill:none;stroke-width:0.050000mm;stroke:black"/>
<polygon points="14.525,14.525 14.525,15.125 13.725,15.125 13.725,27.925 14.525,27.925 14.525,28.526 28.526,28.526 28.526,27.925 29.326,27.925 29.326,15.125 28.526,15.125 28.526,14.525" style="fill:none;stroke-width:0.050000mm;stroke:black"/>
<polygon points="33.576,14.525 33.576,15.125 32.776,15.125 32.776,27.925 33.576,27.925 33.576,28.526 47.576,28.526 47.576,27.925 48.376,27.925 48.376,15.125 47.576,15.125 47.576,14.525" style="fill:none;stroke-width:0.050000mm;stroke:black"/>
<polygon points="52.626,14.525 52.626,15.125 51.826,15.125 51.826,27.925 52.626,27.925 52.626,28.526 66.626,28.526 66.626,27.925 67.426,27.925 67.426,15.125 66.626,15.125 66.626,14.525" style="fill:none;stroke-width:0.050000mm;stroke:black"/>
<polygon points="71.676,14.525 71.676,15.125 70.876,15.125 70.876,27.925 71.676,27.925 71.676,28.526 85.676,28.526 85.676,27.925 86.476,27.925 86.476,15.125 85.676,15.125 85.676,14.525" style="fill:none;stroke-width:0.050000mm;stroke:black"/>
<polygon points="90.726,14.525 90.726,15.125 89.926,15.125 89.926,27.925 90.726,27.925 90.726,28.526 104.726,28.526 104.726,27.925 105.525,27.925 105.525,15.125 104.726,15.125 104.726,14.525" style="fill:none;stroke-width:0.050000mm;stroke:black"/>
<polygon points="110.211,6.836 109.723,7.085 109.336,7.472 109.087,7.960 109.001,8.501 109.087,9.041 109.336,9.529 109.723,9.916 110.211,10.165 110.751,10.251 111.292,10.165 111.780,9.916 112.167,9.529 112.416,9.041 112.501,8.501 112.416,7.960 112.167,7.472 111.780,7.085 111.292,6.836 110.751,6.751" style="fill:none;stroke-width:0.050000mm;stroke:black"/>
<polygon points="7.960,6.836 7.472,7.085 7.085,7.472 6.836,7.960 6.751,8.501 6.836,9.041 7.085,9.529 7.472,9.916 7.960,10.165 8.501,10.251 9.041,10.165 9.529,9.916 9.916,9.529 10.165,9.041 10.251,8.501 10.165,7.960 9.916,7.472 9.529,7.085 9.041,6.836 8.501,6.751" style="fill:none;stroke-width:0.050000mm;stroke:black"/>
</svg>
