%TF.GenerationSoftware,KiCad,Pcbnew,(5.0.0)*%
%TF.CreationDate,2018-08-20T15:42:57+03:00*%
%TF.ProjectId,Lysergic25,4C7973657267696332352E6B69636164,rev?*%
%TF.SameCoordinates,Original*%
%TF.FileFunction,Paste,Bot*%
%TF.FilePolarity,Positive*%
%FSLAX46Y46*%
G04 Gerber Fmt 4.6, Leading zero omitted, Abs format (unit mm)*
G04 Created by KiCad (PCBNEW (5.0.0)) date 08/20/18 15:42:57*
%MOMM*%
%LPD*%
G01*
G04 APERTURE LIST*
%ADD10C,0.150000*%
%ADD11R,1.300000X1.550000*%
%ADD12R,1.300000X1.540000*%
%ADD13R,1.250000X1.500000*%
%ADD14R,1.500000X1.250000*%
%ADD15R,1.200000X1.600000*%
%ADD16R,1.600000X1.200000*%
%ADD17R,1.400000X1.800000*%
%ADD18R,1.800000X1.400000*%
%ADD19R,1.500000X2.000000*%
%ADD20R,3.800000X2.000000*%
%ADD21R,1.500000X1.200000*%
%ADD22R,1.200000X1.500000*%
%ADD23C,1.200000*%
%ADD24R,1.200000X1.000000*%
%ADD25R,1.200000X0.600000*%
%ADD26R,1.500000X1.300000*%
%ADD27R,0.300000X2.450000*%
%ADD28R,0.600000X2.450000*%
%ADD29R,1.300000X1.500000*%
G04 APERTURE END LIST*
D10*
X73152000Y-83820000D02*
X81280000Y-83820000D01*
X16002000Y-83820000D02*
X62484000Y-83820000D01*
X5334000Y-83820000D02*
X-5080000Y-83820000D01*
X72390000Y-84582000D02*
X73152000Y-83820000D01*
X71882000Y-84582000D02*
X72390000Y-84582000D01*
X63246000Y-84582000D02*
X62484000Y-83820000D01*
X63754000Y-84582000D02*
X63246000Y-84582000D01*
X6096000Y-84582000D02*
X5334000Y-83820000D01*
X6604000Y-84582000D02*
X6096000Y-84582000D01*
X15240000Y-84582000D02*
X16002000Y-83820000D01*
X14732000Y-84582000D02*
X15240000Y-84582000D01*
X7112000Y-84582000D02*
X6604000Y-84582000D01*
X14224000Y-84582000D02*
X14732000Y-84582000D01*
X64262000Y-84582000D02*
X63754000Y-84582000D01*
X71374000Y-84582000D02*
X71882000Y-84582000D01*
X7366000Y-84582000D02*
X7112000Y-84582000D01*
X13970000Y-84582000D02*
X14224000Y-84582000D01*
X64516000Y-84582000D02*
X64262000Y-84582000D01*
X71120000Y-84582000D02*
X71374000Y-84582000D01*
X7366000Y-84582000D02*
X7874000Y-84582000D01*
X13970000Y-84582000D02*
X13462000Y-84582000D01*
X64516000Y-84582000D02*
X65024000Y-84582000D01*
X71120000Y-84582000D02*
X70612000Y-84582000D01*
X65024000Y-84582000D02*
X70612000Y-84582000D01*
X7874000Y-84582000D02*
X13462000Y-84582000D01*
X-11430000Y-90170000D02*
X-11430000Y-176530000D01*
X87630000Y-176530000D02*
X87630000Y-90170000D01*
X-5080000Y-182880000D02*
X81280000Y-182880000D01*
X-5080000Y-182880000D02*
G75*
G02X-11430000Y-176530000I0J6350000D01*
G01*
X-5080000Y-83820000D02*
G75*
G03X-11430000Y-90170000I0J-6350000D01*
G01*
X87630000Y-176530000D02*
G75*
G02X81280000Y-182880000I-6350000J0D01*
G01*
X81280000Y-83820000D02*
G75*
G02X87630000Y-90170000I0J-6350000D01*
G01*
D11*
%TO.C,SW1*%
X64679000Y-118376500D03*
X64679000Y-127876500D03*
D12*
X69179000Y-127876500D03*
%TD*%
D13*
%TO.C,C1*%
X13589000Y-136799000D03*
X13589000Y-139299000D03*
%TD*%
%TO.C,C2*%
X11176000Y-109768000D03*
X11176000Y-112268000D03*
%TD*%
%TO.C,C3*%
X30289500Y-106720000D03*
X30289500Y-109220000D03*
%TD*%
D14*
%TO.C,C4*%
X73322500Y-107124500D03*
X70822500Y-107124500D03*
%TD*%
D13*
%TO.C,C5*%
X71120000Y-136799000D03*
X71120000Y-139299000D03*
%TD*%
%TO.C,C6*%
X68326000Y-170350500D03*
X68326000Y-167850500D03*
%TD*%
%TO.C,C7*%
X11176000Y-169906000D03*
X11176000Y-167406000D03*
%TD*%
%TO.C,C8*%
X29768800Y-170668000D03*
X29768800Y-168168000D03*
%TD*%
D14*
%TO.C,C9*%
X32448500Y-87376000D03*
X34948500Y-87376000D03*
%TD*%
D15*
%TO.C,D1*%
X-8534400Y-90344800D03*
X-8534400Y-93144800D03*
%TD*%
%TO.C,D2*%
X26987500Y-92459000D03*
X26987500Y-89659000D03*
%TD*%
%TO.C,D3*%
X29845000Y-100968000D03*
X29845000Y-98168000D03*
%TD*%
D16*
%TO.C,D4*%
X55559500Y-103314500D03*
X58359500Y-103314500D03*
%TD*%
D15*
%TO.C,D5*%
X84018120Y-89239900D03*
X84018120Y-92039900D03*
%TD*%
%TO.C,D6*%
X-8636000Y-111509000D03*
X-8636000Y-108709000D03*
%TD*%
%TO.C,D7*%
X8255000Y-113154000D03*
X8255000Y-115954000D03*
%TD*%
%TO.C,D8*%
X27127200Y-110588600D03*
X27127200Y-113388600D03*
%TD*%
D16*
%TO.C,D9*%
X55559500Y-106108500D03*
X58359500Y-106108500D03*
%TD*%
D15*
%TO.C,D10*%
X84477860Y-115250420D03*
X84477860Y-112450420D03*
%TD*%
%TO.C,D11*%
X-8509000Y-127759000D03*
X-8509000Y-130559000D03*
%TD*%
D16*
%TO.C,D12*%
X17774000Y-125158500D03*
X20574000Y-125158500D03*
%TD*%
%TO.C,D13*%
X39881000Y-123698000D03*
X37081000Y-123698000D03*
%TD*%
%TO.C,D14*%
X58931000Y-125031500D03*
X56131000Y-125031500D03*
%TD*%
D15*
%TO.C,D15*%
X84137500Y-130559000D03*
X84137500Y-127759000D03*
%TD*%
%TO.C,D16*%
X-8534400Y-146923300D03*
X-8534400Y-149723300D03*
%TD*%
%TO.C,D17*%
X11112500Y-149545500D03*
X11112500Y-146745500D03*
%TD*%
D16*
%TO.C,D18*%
X55552800Y-144068800D03*
X52752800Y-144068800D03*
%TD*%
D15*
%TO.C,D19*%
X65278000Y-149482000D03*
X65278000Y-146682000D03*
%TD*%
%TO.C,D20*%
X84251800Y-149609000D03*
X84251800Y-146809000D03*
%TD*%
%TO.C,D21*%
X-8585200Y-168684400D03*
X-8585200Y-165884400D03*
%TD*%
D16*
%TO.C,D22*%
X17777000Y-163322000D03*
X20577000Y-163322000D03*
%TD*%
D15*
%TO.C,D23*%
X46355000Y-171021200D03*
X46355000Y-168221200D03*
%TD*%
%TO.C,D24*%
X65405000Y-172469000D03*
X65405000Y-169669000D03*
%TD*%
%TO.C,D25*%
X83947000Y-170830700D03*
X83947000Y-168030700D03*
%TD*%
D17*
%TO.C,LED1*%
X11175000Y-131077000D03*
X7875000Y-131077000D03*
X7875000Y-135877000D03*
X11175000Y-135877000D03*
%TD*%
%TO.C,LED2*%
X11175000Y-107124200D03*
X7875000Y-107124200D03*
X7875000Y-102324200D03*
X11175000Y-102324200D03*
%TD*%
D18*
%TO.C,LED3*%
X40474600Y-106475800D03*
X40474600Y-103175800D03*
X35674600Y-103175800D03*
X35674600Y-106475800D03*
%TD*%
D17*
%TO.C,LED4*%
X68350400Y-107124200D03*
X65050400Y-107124200D03*
X65050400Y-102324200D03*
X68350400Y-102324200D03*
%TD*%
%TO.C,LED5*%
X68350400Y-131051600D03*
X65050400Y-131051600D03*
X65050400Y-135851600D03*
X68350400Y-135851600D03*
%TD*%
%TO.C,LED6*%
X68325000Y-164325000D03*
X65025000Y-164325000D03*
X65025000Y-159525000D03*
X68325000Y-159525000D03*
%TD*%
D18*
%TO.C,LED7*%
X40373000Y-163194000D03*
X40373000Y-159894000D03*
X35573000Y-159894000D03*
X35573000Y-163194000D03*
%TD*%
D17*
%TO.C,LED8*%
X11238500Y-164388500D03*
X7938500Y-164388500D03*
X7938500Y-159588500D03*
X11238500Y-159588500D03*
%TD*%
D19*
%TO.C,Q1*%
X46468000Y-156235000D03*
X51068000Y-156235000D03*
X48768000Y-156235000D03*
D20*
X48768000Y-162535000D03*
%TD*%
D21*
%TO.C,R6*%
X1286500Y-103441500D03*
X-1413500Y-103441500D03*
%TD*%
%TO.C,R7*%
X20400000Y-105918000D03*
X17700000Y-105918000D03*
%TD*%
%TO.C,R8*%
X20400000Y-103251000D03*
X17700000Y-103251000D03*
%TD*%
%TO.C,R9*%
X76330800Y-103530400D03*
X73630800Y-103530400D03*
%TD*%
D22*
%TO.C,R10*%
X84330540Y-103524040D03*
X84330540Y-100824040D03*
%TD*%
D21*
%TO.C,R11*%
X1223000Y-122301000D03*
X-1477000Y-122301000D03*
%TD*%
%TO.C,R12*%
X20400000Y-122364500D03*
X17700000Y-122364500D03*
%TD*%
%TO.C,R13*%
X52917100Y-122402600D03*
X55617100Y-122402600D03*
%TD*%
D23*
%TO.C,R14*%
X66403773Y-112104315D03*
D10*
G36*
X67224104Y-112603872D02*
X66096473Y-113014297D01*
X65583442Y-111604758D01*
X66711073Y-111194333D01*
X67224104Y-112603872D01*
X67224104Y-112603872D01*
G37*
D23*
X67327227Y-114641485D03*
D10*
G36*
X68147558Y-115141042D02*
X67019927Y-115551467D01*
X66506896Y-114141928D01*
X67634527Y-113731503D01*
X68147558Y-115141042D01*
X68147558Y-115141042D01*
G37*
%TD*%
D21*
%TO.C,R15*%
X77423000Y-122364500D03*
X74723000Y-122364500D03*
%TD*%
%TO.C,R16*%
X-778520Y-141739620D03*
X-3478520Y-141739620D03*
%TD*%
%TO.C,R17*%
X19955500Y-141732000D03*
X17255500Y-141732000D03*
%TD*%
%TO.C,R18*%
X39269660Y-141706600D03*
X36569660Y-141706600D03*
%TD*%
%TO.C,R19*%
X55292000Y-141478000D03*
X57992000Y-141478000D03*
%TD*%
%TO.C,R20*%
X72945000Y-141859000D03*
X75645000Y-141859000D03*
%TD*%
%TO.C,R21*%
X-3128000Y-160655000D03*
X-428000Y-160655000D03*
%TD*%
%TO.C,R22*%
X18208000Y-160782000D03*
X20908000Y-160782000D03*
%TD*%
D22*
%TO.C,R23*%
X29591000Y-162513000D03*
X29591000Y-159813000D03*
%TD*%
D21*
%TO.C,R24*%
X56879500Y-160655000D03*
X59579500Y-160655000D03*
%TD*%
%TO.C,R25*%
X78248500Y-160591500D03*
X75548500Y-160591500D03*
%TD*%
%TO.C,R26*%
X1286500Y-179705000D03*
X-1413500Y-179705000D03*
%TD*%
%TO.C,R27*%
X18685500Y-179895500D03*
X15985500Y-179895500D03*
%TD*%
%TO.C,R28*%
X36973500Y-179578000D03*
X34273500Y-179578000D03*
%TD*%
%TO.C,R29*%
X56976000Y-179578000D03*
X54276000Y-179578000D03*
%TD*%
%TO.C,R30*%
X71700400Y-179730400D03*
X74400400Y-179730400D03*
%TD*%
D24*
%TO.C,U2*%
X48523400Y-96278000D03*
D25*
X48523400Y-97978000D03*
X46523400Y-97978000D03*
X46523400Y-96078000D03*
%TD*%
D26*
%TO.C,UR4*%
X34116000Y-92011500D03*
X31416000Y-92011500D03*
%TD*%
%TO.C,UR5*%
X54149000Y-86918800D03*
X56849000Y-86918800D03*
%TD*%
%TO.C,UR6*%
X40322500Y-87376000D03*
X37622500Y-87376000D03*
%TD*%
D27*
%TO.C,USB1*%
X47349600Y-91405400D03*
X47849600Y-91405400D03*
X48349600Y-91405400D03*
X46849600Y-91405400D03*
X48849600Y-91405400D03*
X46349600Y-91405400D03*
X49349600Y-91405400D03*
X45849600Y-91405400D03*
D28*
X45149600Y-91405400D03*
X50049600Y-91405400D03*
X44374600Y-91405400D03*
X50824600Y-91405400D03*
%TD*%
D29*
%TO.C,R1*%
X24942800Y-139217400D03*
X24942800Y-136517400D03*
%TD*%
%TO.C,R2*%
X48844200Y-150030200D03*
X48844200Y-152730200D03*
%TD*%
%TO.C,R3*%
X4889500Y-100774500D03*
X4889500Y-98074500D03*
%TD*%
%TO.C,R4*%
X25019000Y-98399600D03*
X25019000Y-101099600D03*
%TD*%
%TO.C,R5*%
X61404500Y-116649500D03*
X61404500Y-119349500D03*
%TD*%
M02*
