%TF.GenerationSoftware,KiCad,Pcbnew,(5.0.0)*%
%TF.CreationDate,2018-08-30T21:25:35+03:00*%
%TF.ProjectId,Lysergic25,4C7973657267696332352E6B69636164,rev?*%
%TF.SameCoordinates,Original*%
%TF.FileFunction,Paste,Top*%
%TF.FilePolarity,Positive*%
%FSLAX46Y46*%
G04 Gerber Fmt 4.6, Leading zero omitted, Abs format (unit mm)*
G04 Created by KiCad (PCBNEW (5.0.0)) date 08/30/18 21:25:35*
%MOMM*%
%LPD*%
G01*
G04 APERTURE LIST*
%ADD10C,0.150000*%
G04 APERTURE END LIST*
D10*
X73152000Y-83820000D02*
X62484000Y-83820000D01*
X16002000Y-83820000D02*
X5334000Y-83820000D01*
X73152000Y-83820000D02*
X81280000Y-83820000D01*
X16002000Y-83820000D02*
X62484000Y-83820000D01*
X5334000Y-83820000D02*
X-5080000Y-83820000D01*
X72390000Y-84582000D02*
X73152000Y-83820000D01*
X71882000Y-84582000D02*
X72390000Y-84582000D01*
X63246000Y-84582000D02*
X62484000Y-83820000D01*
X63754000Y-84582000D02*
X63246000Y-84582000D01*
X6096000Y-84582000D02*
X5334000Y-83820000D01*
X6604000Y-84582000D02*
X6096000Y-84582000D01*
X15240000Y-84582000D02*
X16002000Y-83820000D01*
X14732000Y-84582000D02*
X15240000Y-84582000D01*
X7112000Y-84582000D02*
X6604000Y-84582000D01*
X14224000Y-84582000D02*
X14732000Y-84582000D01*
X64262000Y-84582000D02*
X63754000Y-84582000D01*
X71374000Y-84582000D02*
X71882000Y-84582000D01*
X7366000Y-84582000D02*
X7112000Y-84582000D01*
X13970000Y-84582000D02*
X14224000Y-84582000D01*
X64516000Y-84582000D02*
X64262000Y-84582000D01*
X71120000Y-84582000D02*
X71374000Y-84582000D01*
X7366000Y-84582000D02*
X7874000Y-84582000D01*
X13970000Y-84582000D02*
X13462000Y-84582000D01*
X64516000Y-84582000D02*
X65024000Y-84582000D01*
X71120000Y-84582000D02*
X70612000Y-84582000D01*
X65024000Y-84582000D02*
X70612000Y-84582000D01*
X7874000Y-84582000D02*
X13462000Y-84582000D01*
X-11430000Y-90170000D02*
X-11430000Y-176530000D01*
X87630000Y-176530000D02*
X87630000Y-90170000D01*
X-5080000Y-182880000D02*
X81280000Y-182880000D01*
X-5080000Y-182880000D02*
G75*
G02X-11430000Y-176530000I0J6350000D01*
G01*
X-5080000Y-83820000D02*
G75*
G03X-11430000Y-90170000I0J-6350000D01*
G01*
X87630000Y-176530000D02*
G75*
G02X81280000Y-182880000I-6350000J0D01*
G01*
X81280000Y-83820000D02*
G75*
G02X87630000Y-90170000I0J-6350000D01*
G01*
M02*
