M48
;DRILL file {KiCad (5.0.0)} date 08/30/18 21:25:32
;FORMAT={-:-/ absolute / inch / decimal}
FMAT,2
INCH,TZ
T1C0.0157
T2C0.0236
T3C0.0354
T4C0.0394
T5C0.0409
T6C0.0430
T7C0.0472
T8C0.0579
T9C0.0256
T10C0.0315
T11C0.0669
T12C0.0689
T13C0.1570
%
G90
G05
M72
T1
X-0.4251Y-3.9656
X-0.425Y-4.7
X-0.425Y-5.541
X-0.425Y-6.27
X-0.406Y-3.66
X-0.393Y-3.854
X-0.3929Y-4.046
X-0.3929Y-4.6225
X-0.3929Y-5.373
X-0.3929Y-6.1245
X-0.35Y-4.852
X-0.34Y-5.456
X-0.328Y-6.83
X-0.326Y-6.192
X-0.272Y-6.636
X-0.2655Y-6.8595
X-0.252Y-5.742
X-0.234Y-4.98
X-0.234Y-6.198
X-0.232Y-6.948
X-0.23Y-3.538
X-0.226Y-4.22
X-0.195Y-4.7
X-0.185Y-3.95
X-0.174Y-5.33
X-0.1394Y-6.0819
X-0.13Y-4.222
X-0.13Y-4.57
X-0.125Y-3.81
X-0.118Y-4.966
X-0.118Y-5.714
X0.Y-3.38
X0.19Y-4.625
X0.1925Y-3.8612
X0.2427Y-4.1411
X0.2775Y-5.6321
X0.2945Y-6.099
X0.31Y-5.1595
X0.31Y-5.3495
X0.313Y-6.287
X0.315Y-4.0275
X0.3158Y-3.851
X0.32Y-5.79
X0.324Y-4.878
X0.35Y-7.07
X0.38Y-4.5
X0.386Y-6.1345
X0.389Y-3.8479
X0.41Y-6.945
X0.4325Y-6.8595
X0.44Y-4.0285
X0.4425Y-6.472
X0.504Y-4.598
X0.5043Y-5.8543
X0.514Y-4.734
X0.5149Y-4.2658
X0.536Y-5.483
X0.5384Y-4.0065
X0.5399Y-5.7257
X0.6006Y-3.4615
X0.6175Y-5.0025
X0.6214Y-3.8002
X0.6314Y-3.4964
X0.83Y-3.385
X0.8494Y-3.6738
X0.87Y-6.048
X0.903Y-3.9189
X0.905Y-5.7125
X0.9274Y-3.6856
X0.94Y-4.63
X0.9406Y-6.5006
X0.9638Y-6.179
X0.9696Y-4.144
X0.9764Y-6.2603
X0.982Y-5.481
X0.985Y-3.874
X0.987Y-6.3215
X1.0225Y-4.098
X1.0255Y-6.0875
X1.032Y-5.8105
X1.04Y-7.075
X1.05Y-4.834
X1.0525Y-6.2465
X1.0644Y-5.8774
X1.068Y-5.0415
X1.07Y-4.09
X1.0734Y-3.834
X1.1Y-3.96
X1.1045Y-4.0125
X1.135Y-6.93
X1.1525Y-6.0475
X1.173Y-4.7
X1.175Y-6.7165
X1.2382Y-3.935
X1.2564Y-4.0458
X1.266Y-6.1345
X1.2665Y-4.192
X1.2775Y-3.44
X1.3Y-6.55
X1.31Y-4.97
X1.3115Y-5.7275
X1.3145Y-6.2347
X1.345Y-5.351
X1.3786Y-3.8236
X1.4005Y-6.425
X1.4812Y-3.44
X1.4925Y-6.295
X1.495Y-6.4175
X1.5Y-5.3652
X1.506Y-4.802
X1.5514Y-4.6024
X1.555Y-4.965
X1.625Y-6.82
X1.642Y-3.676
X1.645Y-5.205
X1.649Y-4.579
X1.656Y-4.73
X1.6575Y-6.145
X1.6645Y-4.9645
X1.685Y-4.185
X1.695Y-5.395
X1.731Y-4.983
X1.7721Y-6.4143
X1.7775Y-3.678
X1.778Y-3.823
X1.7875Y-4.6815
X1.8Y-7.07
X1.8305Y-3.906
X1.87Y-3.44
X1.89Y-6.945
X1.91Y-3.788
X1.9105Y-3.9085
X1.916Y-4.074
X1.9208Y-4.6812
X1.9275Y-5.3825
X1.93Y-5.05
X1.935Y-6.64
X1.95Y-5.5725
X1.9625Y-5.4675
X1.97Y-3.678
X1.984Y-5.318
X1.991Y-6.0645
X2.0025Y-6.2475
X2.0075Y-5.8325
X2.0344Y-4.7552
X2.056Y-4.58
X2.06Y-5.74
X2.0632Y-4.6393
X2.07Y-3.635
X2.07Y-6.136
X2.112Y-3.694
X2.1203Y-3.4893
X2.1312Y-4.7536
X2.136Y-5.268
X2.14Y-4.242
X2.1458Y-5.3352
X2.15Y-6.11
X2.151Y-5.745
X2.16Y-5.
X2.1769Y-5.57
X2.205Y-6.415
X2.2381Y-3.422
X2.3196Y-4.9756
X2.3345Y-6.1173
X2.366Y-3.696
X2.378Y-4.442
X2.385Y-6.815
X2.4145Y-3.5939
X2.4274Y-3.3824
X2.445Y-5.715
X2.4458Y-3.3434
X2.452Y-4.824
X2.465Y-5.6275
X2.475Y-5.41
X2.486Y-3.918
X2.5032Y-4.7286
X2.5225Y-4.908
X2.5248Y-4.5353
X2.525Y-7.075
X2.561Y-4.2175
X2.561Y-5.3485
X2.601Y-3.725
X2.6075Y-6.1975
X2.6263Y-4.1183
X2.6818Y-3.5058
X2.6875Y-6.7075
X2.6884Y-3.6008
X2.69Y-6.2805
X2.691Y-5.1595
X2.712Y-4.812
X2.755Y-6.6275
X2.7675Y-3.6775
X2.77Y-4.425
X2.7732Y-3.5436
X2.7825Y-4.2825
X2.7877Y-4.6836
X2.7914Y-6.0916
X2.814Y-3.44
X2.815Y-3.96
X2.8425Y-6.485
X2.869Y-4.982
X2.87Y-5.3914
X3.065Y-4.2005
X3.1145Y-5.532
X3.13Y-6.81
X3.15Y-5.375
X3.1665Y-3.384
X3.17Y-4.615
X3.175Y-4.9525
X3.192Y-3.964
X3.196Y-7.048
X3.1994Y-4.1296
X3.2075Y-5.735
X3.246Y-3.938
X3.2468Y-6.6522
X3.252Y-5.178
X3.258Y-5.932
X3.312Y-5.512
X3.318Y-4.836
X3.326Y-6.292
X3.35Y-4.25
X3.376Y-3.8005
X3.376Y-4.734
X3.376Y-5.452
X3.376Y-6.199
X3.376Y-6.438
X3.412Y-6.383
X3.4132Y-5.563
X3.4145Y-4.7665
X3.4155Y-4.1205
T4
X-0.335Y-4.9315
X-0.335Y-5.2385
X-0.336Y-5.686
X-0.336Y-5.993
X-0.2373Y-5.5803
X0.0697Y-5.5803
X0.325Y-4.3565
X0.325Y-4.6635
X3.3201Y-3.8691
X3.3201Y-4.1761
X1.249Y-7.07
X1.556Y-7.07
X-0.336Y-3.4585
X-0.336Y-3.7655
X-0.338Y-6.4325
X-0.338Y-6.7395
X1.925Y-4.2825
X1.925Y-4.3825
X1.925Y-4.4825
X1.925Y-4.5825
X2.7985Y-4.076
X3.1055Y-4.076
X2.089Y-4.1775
X2.396Y-4.1775
X2.8415Y-4.8175
X3.1485Y-4.8175
X2.0765Y-5.57
X2.3835Y-5.57
X2.139Y-6.325
X2.446Y-6.325
X1.825Y-6.5245
X1.825Y-6.8315
X0.6013Y-4.9275
X0.9084Y-4.9275
X0.6015Y-6.43
X0.9085Y-6.43
X0.5965Y-4.065
X0.9035Y-4.065
X3.3078Y-3.415
X3.3078Y-3.722
X2.7225Y-7.076
X3.0295Y-7.076
X-0.34Y-4.1815
X-0.34Y-4.4885
X-0.2235Y-6.325
X0.0835Y-6.325
X3.317Y-5.6815
X3.317Y-5.9885
X1.3615Y-4.87
X1.6685Y-4.87
X3.305Y-6.517
X3.305Y-6.824
X0.5965Y-4.17
X0.9035Y-4.17
X0.5965Y-4.8175
X0.9035Y-4.8175
X-0.156Y-7.075
X0.151Y-7.075
X2.089Y-4.0675
X2.396Y-4.0675
X1.165Y-6.1915
X1.165Y-6.4985
X2.57Y-5.6765
X2.57Y-5.9835
X1.9785Y-5.672
X2.2855Y-5.672
X2.575Y-6.5815
X2.575Y-6.8885
X-0.156Y-4.0725
X0.151Y-4.0725
X1.175Y-3.7665
X1.175Y-4.0735
X2.874Y-6.3225
X3.181Y-6.3225
X1.0625Y-3.4315
X1.0625Y-3.7385
X0.6165Y-6.33
X0.9235Y-6.33
X3.3259Y-4.3288
X3.3259Y-4.6358
X3.3125Y-4.9315
X3.3125Y-5.2385
X2.1115Y-4.9225
X2.4185Y-4.9225
X2.58Y-4.3192
X2.685Y-4.6078
X-0.1585Y-4.815
X0.1485Y-4.815
X0.529Y-7.0825
X0.836Y-7.0825
X1.3394Y-5.579
X1.6464Y-5.579
X2.7715Y-5.585
X3.0785Y-5.585
X0.4375Y-5.679
X0.4375Y-5.986
X1.983Y-4.819
X2.29Y-4.819
X0.579Y-5.58
X0.886Y-5.58
X1.068Y-4.2555
X1.068Y-4.5625
X2.0365Y-7.07
X2.3435Y-7.07
T5
X0.7Y-6.2
X0.8Y-6.2
X0.7Y-3.95
X0.8Y-3.95
X-0.05Y-6.95
X0.05Y-6.95
X1.45Y-4.7
X1.55Y-4.7
X2.2Y-5.45
X2.3Y-5.45
X0.7Y-4.7
X0.8Y-4.7
X-0.05Y-6.2
X0.05Y-6.2
X0.7Y-6.95
X0.8Y-6.95
X2.95Y-5.45
X3.05Y-5.45
X-0.05Y-3.95
X0.05Y-3.95
X1.45Y-6.2
X1.55Y-6.2
X2.2Y-3.55
X2.3Y-3.55
X0.7Y-5.45
X0.8Y-5.45
X2.95Y-3.95
X3.05Y-3.95
X-0.05Y-4.7
X0.05Y-4.7
X2.2Y-6.95
X2.3Y-6.95
X2.95Y-6.2
X3.05Y-6.2
X-0.05Y-5.45
X0.05Y-5.45
X2.2Y-4.7
X2.3Y-4.7
X2.95Y-4.7
X3.05Y-4.7
X1.45Y-6.95
X1.55Y-6.95
X2.2Y-6.2
X2.3Y-6.2
X1.449Y-3.55
X1.549Y-3.55
X2.95Y-6.95
X3.05Y-6.95
X1.45Y-5.45
X1.55Y-5.45
T6
X1.2003Y-4.8285
X1.2003Y-4.9285
X1.2003Y-5.0285
X1.2003Y-5.1285
X1.2003Y-5.2285
X1.2003Y-5.3285
X1.2003Y-5.4285
X1.2003Y-5.5285
X1.2003Y-5.6285
X1.2003Y-5.7285
X1.2003Y-5.8285
X1.2003Y-5.9285
X1.8003Y-4.8285
X1.8003Y-4.9285
X1.8003Y-5.0285
X1.8003Y-5.1285
X1.8003Y-5.2285
X1.8003Y-5.3285
X1.8003Y-5.4285
X1.8003Y-5.5285
X1.8003Y-5.6285
X1.8003Y-5.7285
X1.8003Y-5.8285
X1.8003Y-5.9285
T7
X0.75Y-5.7677
X0.9469Y-5.8504
X0.75Y-3.5177
X0.9469Y-3.6004
X0.Y-6.5177
X0.1969Y-6.6004
X1.5Y-4.2677
X1.6969Y-4.3504
X2.25Y-5.0177
X2.4469Y-5.1004
X0.75Y-4.2677
X0.9469Y-4.3504
X0.Y-5.7677
X0.1969Y-5.8504
X0.75Y-6.5177
X0.9469Y-6.6004
X3.Y-5.0177
X3.1969Y-5.1004
X0.Y-3.5177
X0.1969Y-3.6004
X1.5Y-5.7677
X1.6969Y-5.8504
X2.0531Y-3.8996
X2.25Y-3.9823
X0.75Y-5.0177
X0.9469Y-5.1004
X3.Y-3.5177
X3.1969Y-3.6004
X0.Y-4.2677
X0.1969Y-4.3504
X2.25Y-6.5177
X2.4469Y-6.6004
X3.Y-5.7677
X3.1969Y-5.8504
X0.Y-5.0177
X0.1969Y-5.1004
X2.25Y-4.2677
X2.4469Y-4.3504
X3.Y-4.2677
X3.1969Y-4.3504
X1.5Y-6.5177
X1.6969Y-6.6004
X2.25Y-5.7677
X2.4469Y-5.8504
X1.3021Y-3.8996
X1.499Y-3.9823
X3.Y-6.5177
X3.1969Y-6.6004
X1.5Y-5.0177
X1.6969Y-5.1004
T8
X2.85Y-5.9
X2.9016Y-5.8425
X3.0984Y-5.8228
X3.1Y-5.8
X-0.15Y-5.15
X-0.0984Y-5.0925
X0.0984Y-5.0728
X0.1Y-5.05
X2.1Y-4.4
X2.1516Y-4.3425
X2.3484Y-4.3228
X2.35Y-4.3
X2.85Y-4.4
X2.9016Y-4.3425
X3.0984Y-4.3228
X3.1Y-4.3
X1.35Y-6.65
X1.4016Y-6.5925
X1.5984Y-6.5728
X1.6Y-6.55
X2.1Y-5.9
X2.1516Y-5.8425
X2.3484Y-5.8228
X2.35Y-5.8
X1.399Y-3.95
X1.4006Y-3.9272
X1.5974Y-3.9075
X1.649Y-3.85
X2.85Y-6.65
X2.9016Y-6.5925
X3.0984Y-6.5728
X3.1Y-6.55
X1.35Y-5.15
X1.4016Y-5.0925
X1.5984Y-5.0728
X1.6Y-5.05
X0.6Y-5.9
X0.6516Y-5.8425
X0.8484Y-5.8228
X0.85Y-5.8
X0.6Y-3.65
X0.6516Y-3.5925
X0.8484Y-3.5728
X0.85Y-3.55
X-0.15Y-6.65
X-0.0984Y-6.5925
X0.0984Y-6.5728
X0.1Y-6.55
X1.35Y-4.4
X1.4016Y-4.3425
X1.5984Y-4.3228
X1.6Y-4.3
X2.1Y-5.15
X2.1516Y-5.0925
X2.3484Y-5.0728
X2.35Y-5.05
X0.6Y-4.4
X0.6516Y-4.3425
X0.8484Y-4.3228
X0.85Y-4.3
X-0.15Y-5.9
X-0.0984Y-5.8425
X0.0984Y-5.8228
X0.1Y-5.8
X0.6Y-6.65
X0.6516Y-6.5925
X0.8484Y-6.5728
X0.85Y-6.55
X2.85Y-5.15
X2.9016Y-5.0925
X3.0984Y-5.0728
X3.1Y-5.05
X-0.15Y-3.65
X-0.0984Y-3.5925
X0.0984Y-3.5728
X0.1Y-3.55
X1.35Y-5.9
X1.4016Y-5.8425
X1.5984Y-5.8228
X1.6Y-5.8
X2.15Y-3.95
X2.1516Y-3.9272
X2.3484Y-3.9075
X2.4Y-3.85
X0.6Y-5.15
X0.6516Y-5.0925
X0.8484Y-5.0728
X0.85Y-5.05
X2.85Y-3.65
X2.9016Y-3.5925
X3.0984Y-3.5728
X3.1Y-3.55
X-0.15Y-4.4
X-0.0984Y-4.3425
X0.0984Y-4.3228
X0.1Y-4.3
X2.1Y-6.65
X2.1516Y-6.5925
X2.3484Y-6.5728
X2.35Y-6.55
T9
X1.7602Y-3.5221
X1.9878Y-3.5221
T10
X2.619Y-3.3625
X2.619Y-3.6381
X0.379Y-3.365
X0.379Y-3.6406
T11
X2.7835Y-5.25
X3.2165Y-5.25
X-0.2165Y-3.75
X0.2165Y-3.75
X1.2835Y-6.
X1.7165Y-6.
X2.0335Y-3.75
X2.4665Y-3.75
X0.5335Y-5.25
X0.9665Y-5.25
X2.7835Y-3.75
X3.2165Y-3.75
X-0.2165Y-4.5
X0.2165Y-4.5
X2.0335Y-6.75
X2.4665Y-6.75
X2.7835Y-6.
X3.2165Y-6.
X-0.2165Y-5.25
X0.2165Y-5.25
X2.0335Y-4.5
X2.4665Y-4.5
X2.7835Y-4.5
X3.2165Y-4.5
X1.2835Y-6.75
X1.7165Y-6.75
X2.0335Y-6.
X2.4665Y-6.
X1.2825Y-3.75
X1.7155Y-3.75
X2.7835Y-6.75
X3.2165Y-6.75
X0.5335Y-6.
X0.9665Y-6.
X0.5335Y-3.75
X0.9665Y-3.75
X-0.2165Y-6.75
X0.2165Y-6.75
X1.2835Y-4.5
X1.7165Y-4.5
X2.0335Y-5.25
X2.4665Y-5.25
X0.5335Y-4.5
X0.9665Y-4.5
X-0.2165Y-6.
X0.2165Y-6.
X0.5335Y-6.75
X0.9665Y-6.75
T12
X0.55Y-6.
X0.95Y-6.
X0.55Y-3.75
X0.95Y-3.75
X-0.2Y-6.75
X0.2Y-6.75
X1.3Y-4.5
X1.7Y-4.5
X2.05Y-5.25
X2.45Y-5.25
X0.55Y-4.5
X0.95Y-4.5
X-0.2Y-6.
X0.2Y-6.
X0.55Y-6.75
X0.95Y-6.75
X2.8Y-5.25
X3.2Y-5.25
X-0.2Y-3.75
X0.2Y-3.75
X1.3Y-6.
X1.7Y-6.
X2.05Y-3.75
X2.45Y-3.75
X0.55Y-5.25
X0.95Y-5.25
X2.8Y-3.75
X3.2Y-3.75
X-0.2Y-4.5
X0.2Y-4.5
X2.05Y-6.75
X2.45Y-6.75
X2.8Y-6.
X3.2Y-6.
X-0.2Y-5.25
X0.2Y-5.25
X2.05Y-4.5
X2.45Y-4.5
X2.8Y-4.5
X3.2Y-4.5
X1.3Y-6.75
X1.7Y-6.75
X2.05Y-6.
X2.45Y-6.
X1.299Y-3.75
X1.699Y-3.75
X2.8Y-6.75
X3.2Y-6.75
T13
X0.75Y-6.
X0.75Y-3.75
X0.Y-6.75
X1.5Y-4.5
X2.25Y-5.25
X0.75Y-4.5
X0.Y-6.
X0.75Y-6.75
X3.Y-5.25
X0.Y-3.75
X1.5Y-6.
X2.25Y-3.75
X0.75Y-5.25
X3.Y-3.75
X0.Y-4.5
X2.25Y-6.75
X3.Y-6.
X0.Y-5.25
X2.25Y-4.5
X3.Y-4.5
X1.5Y-6.75
X2.25Y-6.
X1.499Y-3.75
X3.Y-6.75
X1.5Y-5.25
T2
X1.7039Y-3.3666G85X1.7039Y-3.3902
G05
X1.7039Y-3.5213G85X1.7039Y-3.5646
G05
X2.0441Y-3.3666G85X2.0441Y-3.3902
G05
X2.0441Y-3.5213G85X2.0441Y-3.5646
G05
T3
X2.5284Y-3.4334G85X2.5284Y-3.4176
G05
X2.5284Y-3.5515G85X2.5284Y-3.5357
G05
X2.5284Y-3.7089G85X2.5284Y-3.6932
G05
X2.7096Y-3.7523G85X2.7096Y-3.7365
G05
X0.2884Y-3.739G85X0.2884Y-3.7548
G05
X0.4696Y-3.4201G85X0.4696Y-3.4359
G05
X0.4696Y-3.5382G85X0.4696Y-3.554
G05
X0.4696Y-3.6957G85X0.4696Y-3.7114
G05
T0
M30
