%TF.GenerationSoftware,KiCad,Pcbnew,(5.0.0)*%
%TF.CreationDate,2018-08-20T15:42:57+03:00*%
%TF.ProjectId,Lysergic25,4C7973657267696332352E6B69636164,rev?*%
%TF.SameCoordinates,Original*%
%TF.FileFunction,Soldermask,Top*%
%TF.FilePolarity,Negative*%
%FSLAX46Y46*%
G04 Gerber Fmt 4.6, Leading zero omitted, Abs format (unit mm)*
G04 Created by KiCad (PCBNEW (5.0.0)) date 08/20/18 15:42:57*
%MOMM*%
%LPD*%
G01*
G04 APERTURE LIST*
%ADD10C,0.150000*%
%ADD11C,4.387800*%
%ADD12C,2.150000*%
%ADD13R,2.000000X2.000000*%
%ADD14C,2.000000*%
%ADD15O,2.100000X2.100000*%
%ADD16R,2.100000X2.100000*%
%ADD17O,2.000000X2.400000*%
%ADD18C,1.200000*%
%ADD19R,2.152600X2.152600*%
%ADD20C,2.152600*%
%ADD21O,1.400000X2.000000*%
%ADD22O,1.400000X2.500000*%
%ADD23C,1.050000*%
G04 APERTURE END LIST*
D10*
X73152000Y-83820000D02*
X81280000Y-83820000D01*
X16002000Y-83820000D02*
X62484000Y-83820000D01*
X5334000Y-83820000D02*
X-5080000Y-83820000D01*
X72390000Y-84582000D02*
X73152000Y-83820000D01*
X71882000Y-84582000D02*
X72390000Y-84582000D01*
X63246000Y-84582000D02*
X62484000Y-83820000D01*
X63754000Y-84582000D02*
X63246000Y-84582000D01*
X6096000Y-84582000D02*
X5334000Y-83820000D01*
X6604000Y-84582000D02*
X6096000Y-84582000D01*
X15240000Y-84582000D02*
X16002000Y-83820000D01*
X14732000Y-84582000D02*
X15240000Y-84582000D01*
X7112000Y-84582000D02*
X6604000Y-84582000D01*
X14224000Y-84582000D02*
X14732000Y-84582000D01*
X64262000Y-84582000D02*
X63754000Y-84582000D01*
X71374000Y-84582000D02*
X71882000Y-84582000D01*
X7366000Y-84582000D02*
X7112000Y-84582000D01*
X13970000Y-84582000D02*
X14224000Y-84582000D01*
X64516000Y-84582000D02*
X64262000Y-84582000D01*
X71120000Y-84582000D02*
X71374000Y-84582000D01*
X7366000Y-84582000D02*
X7874000Y-84582000D01*
X13970000Y-84582000D02*
X13462000Y-84582000D01*
X64516000Y-84582000D02*
X65024000Y-84582000D01*
X71120000Y-84582000D02*
X70612000Y-84582000D01*
X65024000Y-84582000D02*
X70612000Y-84582000D01*
X7874000Y-84582000D02*
X13462000Y-84582000D01*
X-11430000Y-90170000D02*
X-11430000Y-176530000D01*
X87630000Y-176530000D02*
X87630000Y-90170000D01*
X-5080000Y-182880000D02*
X81280000Y-182880000D01*
X-5080000Y-182880000D02*
G75*
G02X-11430000Y-176530000I0J6350000D01*
G01*
X-5080000Y-83820000D02*
G75*
G03X-11430000Y-90170000I0J-6350000D01*
G01*
X87630000Y-176530000D02*
G75*
G02X81280000Y-182880000I-6350000J0D01*
G01*
X81280000Y-83820000D02*
G75*
G02X87630000Y-90170000I0J-6350000D01*
G01*
D11*
%TO.C,MX13*%
X38100000Y-133350000D03*
%TD*%
D12*
%TO.C,MX21*%
X5080000Y-171450000D03*
X-5080000Y-171450000D03*
D11*
X0Y-171450000D03*
%TD*%
D12*
%TO.C,MX22*%
X24130000Y-171450000D03*
X13970000Y-171450000D03*
D11*
X19050000Y-171450000D03*
%TD*%
D12*
%TO.C,MX23*%
X43180000Y-171450000D03*
X33020000Y-171450000D03*
D11*
X38100000Y-171450000D03*
%TD*%
D12*
%TO.C,MX24*%
X62230000Y-171450000D03*
X52070000Y-171450000D03*
D11*
X57150000Y-171450000D03*
%TD*%
D12*
%TO.C,MX25*%
X81280000Y-171450000D03*
X71120000Y-171450000D03*
D11*
X76200000Y-171450000D03*
%TD*%
D12*
%TO.C,MX16*%
X5080000Y-152400000D03*
X-5080000Y-152400000D03*
D11*
X0Y-152400000D03*
%TD*%
D12*
%TO.C,MX17*%
X24130000Y-152400000D03*
X13970000Y-152400000D03*
D11*
X19050000Y-152400000D03*
%TD*%
D12*
%TO.C,MX18*%
X43180000Y-152400000D03*
X33020000Y-152400000D03*
D11*
X38100000Y-152400000D03*
%TD*%
D12*
%TO.C,MX19*%
X62230000Y-152400000D03*
X52070000Y-152400000D03*
D11*
X57150000Y-152400000D03*
%TD*%
D12*
%TO.C,MX20*%
X81280000Y-152400000D03*
X71120000Y-152400000D03*
D11*
X76200000Y-152400000D03*
%TD*%
D12*
%TO.C,MX15*%
X81280000Y-133350000D03*
X71120000Y-133350000D03*
D11*
X76200000Y-133350000D03*
%TD*%
D12*
%TO.C,MX14*%
X62230000Y-133350000D03*
X52070000Y-133350000D03*
D11*
X57150000Y-133350000D03*
%TD*%
D12*
%TO.C,MX12*%
X24130000Y-133350000D03*
X13970000Y-133350000D03*
D11*
X19050000Y-133350000D03*
%TD*%
D12*
%TO.C,MX11*%
X5080000Y-133350000D03*
X-5080000Y-133350000D03*
D11*
X0Y-133350000D03*
%TD*%
D12*
%TO.C,MX10*%
X81280000Y-114300000D03*
X71120000Y-114300000D03*
D11*
X76200000Y-114300000D03*
%TD*%
D12*
%TO.C,MX9*%
X62230000Y-114300000D03*
X52070000Y-114300000D03*
D11*
X57150000Y-114300000D03*
%TD*%
D12*
%TO.C,MX8*%
X43180000Y-114300000D03*
X33020000Y-114300000D03*
D11*
X38100000Y-114300000D03*
%TD*%
D12*
%TO.C,MX7*%
X24130000Y-114300000D03*
X13970000Y-114300000D03*
D11*
X19050000Y-114300000D03*
%TD*%
D12*
%TO.C,MX6*%
X5080000Y-114300000D03*
X-5080000Y-114300000D03*
D11*
X0Y-114300000D03*
%TD*%
D12*
%TO.C,MX5*%
X81280000Y-95250000D03*
X71120000Y-95250000D03*
D11*
X76200000Y-95250000D03*
%TD*%
D12*
%TO.C,MX4*%
X52070000Y-95250000D03*
X62230000Y-95250000D03*
D11*
X57150000Y-95250000D03*
%TD*%
D12*
%TO.C,MX1*%
X5080000Y-95250000D03*
X-5080000Y-95250000D03*
D11*
X0Y-95250000D03*
%TD*%
D12*
%TO.C,MX2*%
X24130000Y-95250000D03*
X13970000Y-95250000D03*
D11*
X19050000Y-95250000D03*
%TD*%
D12*
%TO.C,MX3*%
X32994600Y-95250000D03*
X43154600Y-95250000D03*
D11*
X38074600Y-95250000D03*
%TD*%
D13*
%TO.C,D1*%
X-8534400Y-87844800D03*
D14*
X-8534400Y-95644800D03*
%TD*%
%TO.C,D2*%
X26987500Y-94959000D03*
D13*
X26987500Y-87159000D03*
%TD*%
D14*
%TO.C,D3*%
X29845000Y-103468000D03*
D13*
X29845000Y-95668000D03*
%TD*%
D14*
%TO.C,D4*%
X53059500Y-103314500D03*
D13*
X60859500Y-103314500D03*
%TD*%
%TO.C,D5*%
X84018120Y-86739900D03*
D14*
X84018120Y-94539900D03*
%TD*%
%TO.C,D6*%
X-8636000Y-114009000D03*
D13*
X-8636000Y-106209000D03*
%TD*%
%TO.C,D7*%
X8255000Y-110654000D03*
D14*
X8255000Y-118454000D03*
%TD*%
D13*
%TO.C,D8*%
X27127200Y-108088600D03*
D14*
X27127200Y-115888600D03*
%TD*%
%TO.C,D9*%
X53059500Y-106108500D03*
D13*
X60859500Y-106108500D03*
%TD*%
D14*
%TO.C,D10*%
X84477860Y-117750420D03*
D13*
X84477860Y-109950420D03*
%TD*%
%TO.C,D11*%
X-8509000Y-125259000D03*
D14*
X-8509000Y-133059000D03*
%TD*%
D13*
%TO.C,D12*%
X15274000Y-125158500D03*
D14*
X23074000Y-125158500D03*
%TD*%
%TO.C,D13*%
X42381000Y-123698000D03*
D13*
X34581000Y-123698000D03*
%TD*%
D14*
%TO.C,D14*%
X61431000Y-125031500D03*
D13*
X53631000Y-125031500D03*
%TD*%
D14*
%TO.C,D15*%
X84137500Y-133059000D03*
D13*
X84137500Y-125259000D03*
%TD*%
%TO.C,D16*%
X-8534400Y-144423300D03*
D14*
X-8534400Y-152223300D03*
%TD*%
%TO.C,D17*%
X11112500Y-152045500D03*
D13*
X11112500Y-144245500D03*
%TD*%
%TO.C,D18*%
X58052800Y-144068800D03*
D14*
X50252800Y-144068800D03*
%TD*%
%TO.C,D19*%
X65278000Y-151982000D03*
D13*
X65278000Y-144182000D03*
%TD*%
D14*
%TO.C,D20*%
X84251800Y-152109000D03*
D13*
X84251800Y-144309000D03*
%TD*%
D14*
%TO.C,D21*%
X-8585200Y-171184400D03*
D13*
X-8585200Y-163384400D03*
%TD*%
%TO.C,D22*%
X15277000Y-163322000D03*
D14*
X23077000Y-163322000D03*
%TD*%
D13*
%TO.C,D23*%
X46355000Y-173521200D03*
D14*
X46355000Y-165721200D03*
%TD*%
D13*
%TO.C,D24*%
X65405000Y-174969000D03*
D14*
X65405000Y-167169000D03*
%TD*%
D13*
%TO.C,D25*%
X83947000Y-173330700D03*
D14*
X83947000Y-165530700D03*
%TD*%
D15*
%TO.C,J1*%
X48895000Y-108775500D03*
X48895000Y-111315500D03*
X48895000Y-113855500D03*
D16*
X48895000Y-116395500D03*
%TD*%
D14*
%TO.C,R6*%
X3836500Y-103441500D03*
X-3963500Y-103441500D03*
%TD*%
%TO.C,R7*%
X22950000Y-105918000D03*
X15150000Y-105918000D03*
%TD*%
%TO.C,R8*%
X22950000Y-103251000D03*
X15150000Y-103251000D03*
%TD*%
%TO.C,R9*%
X78880800Y-103530400D03*
X71080800Y-103530400D03*
%TD*%
%TO.C,R10*%
X84330540Y-106074040D03*
X84330540Y-98274040D03*
%TD*%
%TO.C,R11*%
X3773000Y-122301000D03*
X-4027000Y-122301000D03*
%TD*%
%TO.C,R12*%
X22950000Y-122364500D03*
X15150000Y-122364500D03*
%TD*%
%TO.C,R13*%
X50367100Y-122402600D03*
X58167100Y-122402600D03*
%TD*%
%TO.C,R14*%
X65531621Y-109708099D03*
X68199379Y-117037701D03*
%TD*%
%TO.C,R15*%
X79973000Y-122364500D03*
X72173000Y-122364500D03*
%TD*%
%TO.C,R16*%
X1771480Y-141739620D03*
X-6028520Y-141739620D03*
%TD*%
%TO.C,R17*%
X22505500Y-141732000D03*
X14705500Y-141732000D03*
%TD*%
%TO.C,R18*%
X41819660Y-141706600D03*
X34019660Y-141706600D03*
%TD*%
%TO.C,R19*%
X52742000Y-141478000D03*
X60542000Y-141478000D03*
%TD*%
%TO.C,R20*%
X70395000Y-141859000D03*
X78195000Y-141859000D03*
%TD*%
%TO.C,R21*%
X-5678000Y-160655000D03*
X2122000Y-160655000D03*
%TD*%
%TO.C,R22*%
X15658000Y-160782000D03*
X23458000Y-160782000D03*
%TD*%
%TO.C,R23*%
X29591000Y-165063000D03*
X29591000Y-157263000D03*
%TD*%
%TO.C,R24*%
X54329500Y-160655000D03*
X62129500Y-160655000D03*
%TD*%
%TO.C,R25*%
X80798500Y-160591500D03*
X72998500Y-160591500D03*
%TD*%
%TO.C,R26*%
X3836500Y-179705000D03*
X-3963500Y-179705000D03*
%TD*%
%TO.C,R27*%
X21235500Y-179895500D03*
X13435500Y-179895500D03*
%TD*%
%TO.C,R28*%
X39523500Y-179578000D03*
X31723500Y-179578000D03*
%TD*%
%TO.C,R29*%
X59526000Y-179578000D03*
X51726000Y-179578000D03*
%TD*%
%TO.C,R30*%
X69150400Y-179730400D03*
X76950400Y-179730400D03*
%TD*%
D17*
%TO.C,Trrs1*%
X65530700Y-92648900D03*
D18*
X67830700Y-88048900D03*
X67830700Y-95048900D03*
D17*
X65530700Y-89648900D03*
X65530700Y-96648900D03*
X70130700Y-97748900D03*
%TD*%
%TO.C,Trrs2*%
X12968000Y-97736200D03*
X8368000Y-96636200D03*
X8368000Y-89636200D03*
D18*
X10668000Y-95036200D03*
X10668000Y-88036200D03*
D17*
X8368000Y-92636200D03*
%TD*%
D19*
%TO.C,U1*%
X30487620Y-122643900D03*
D20*
X30487620Y-125183900D03*
X30487620Y-127723900D03*
X30487620Y-130263900D03*
X30487620Y-132803900D03*
X30487620Y-135343900D03*
X30487620Y-137883900D03*
X30487620Y-140423900D03*
X30487620Y-142963900D03*
X30487620Y-145503900D03*
X30487620Y-148043900D03*
X45727620Y-150583900D03*
X45727620Y-148043900D03*
X45727620Y-145503900D03*
X45727620Y-142963900D03*
X45727620Y-140423900D03*
X45727620Y-137883900D03*
X45727620Y-135343900D03*
X45727620Y-132803900D03*
X45727620Y-130263900D03*
X45727620Y-127723900D03*
X45727620Y-125183900D03*
X30487620Y-150583900D03*
X45727620Y-122643900D03*
%TD*%
D21*
%TO.C,USB1*%
X51919600Y-85810400D03*
X43279600Y-85810400D03*
D22*
X51919600Y-89990400D03*
X43279600Y-89990400D03*
D23*
X44709600Y-89460400D03*
X50489600Y-89460400D03*
%TD*%
M02*
